<svg xmlns="http://www.w3.org/2000/svg" xmlns:xlink="http://www.w3.org/1999/xlink" version="1.1" id="Layer_1" x="0px" y="0px" viewBox="0 0 270 140" style="enable-background:new 0 0 270 140;" xml:space="preserve">
<g>
    <g>
        <path style="fill:#F54029;" d="M2.09,95.45c0,11.33,8.77,19.56,20.84,19.56c1.68,0,7.06-0.31,10.76-3.86c-0.01,1.18,0,3.14,0,3.14    h8.2V91.75H24.07v8.06h7.25c-0.86,2.94-4.14,5.91-8.62,5.91c-6.55,0-8.88-5.3-8.88-10.26c0-4.96,2.33-10.26,8.88-10.26    c3.28,0,5.96,1.17,7,3.04l0.17,0.33h11.89l-0.16-0.71c-2.01-8.82-11.32-11.96-18.67-11.96C10.86,75.89,2.09,84.12,2.09,95.45"/>
        <path style="fill:#F54029;" d="M60.4,91.81h-6.73v-6.03h6.38c1.09,0,3.61,0.28,3.61,2.86C63.66,90.74,62.56,91.81,60.4,91.81     M126.15,77.55c0,0-5.87,11.99-6.74,13.76c-0.86-1.77-6.74-13.76-6.74-13.76h-35.6v31.81c-2.78-4.79-6.64-11.43-7.01-12.07    c3.3-1.56,5.32-5.02,5.32-9.17c0-3.48-1.43-6.3-4.12-8.16c-2.26-1.56-5.42-2.41-8.91-2.41H43.43v36.73h10.24v-14.26h5.83    c0.29,0.59,7.13,14.26,7.13,14.26h42.66v-8.45H88.11v-5.56h15.26v-7.88H88.11v-6.38h17.64c3.78,6.52,8.38,14.44,8.47,14.59v13.68    h10.4V100.6c0.15-0.26,13.38-23.05,13.38-23.05H126.15z"/>
    </g>
    <g>
        <path style="fill:#1A1A1A;" d="M14.56,134.66l0.52-3.81l-0.52-0.15c-0.19,0.54-0.38,1.01-0.57,1.4c-0.19,0.4-0.43,0.73-0.74,0.99    c-0.31,0.26-0.71,0.45-1.2,0.58c-0.49,0.12-1.15,0.18-1.95,0.18h-0.6c-1.03,0-1.54-0.37-1.54-1.1v-3.68    c0-0.42,0.29-0.63,0.88-0.63h0.23c0.41,0,0.76,0.02,1.04,0.06c0.28,0.05,0.52,0.14,0.71,0.29c0.19,0.15,0.34,0.36,0.44,0.64    c0.1,0.28,0.18,0.65,0.23,1.13h0.71v-4.99h-0.71c-0.05,0.47-0.14,0.85-0.28,1.13c-0.13,0.28-0.31,0.48-0.52,0.62    c-0.21,0.13-0.46,0.22-0.73,0.25c-0.28,0.03-0.58,0.05-0.9,0.05H8.41c-0.31,0-0.46-0.19-0.46-0.58v-3.45    c0-0.58,0.49-0.87,1.46-0.87h0.54c0.5,0,0.96,0.02,1.39,0.05c0.42,0.03,0.8,0.14,1.13,0.33c0.33,0.19,0.61,0.47,0.84,0.86    c0.23,0.39,0.41,0.92,0.52,1.62l0.6-0.08l-0.16-3.6H4.14v0.58c1.27,0,1.91,0.54,1.91,1.62v8.74c0,0.83-0.59,1.25-1.77,1.25v0.58    H14.56z"/>
        <path style="fill:#1A1A1A;" d="M29.89,134.74v-10.15c0-1.42,0.59-2.12,1.77-2.12v-0.58h-4.62v0.58c1.31,0,1.96,0.71,1.96,2.12    v6.91l-7.54-9.61h-3.52v0.58c1.27,0,1.91,0.27,1.91,0.81v8.51c0,1.53-0.54,2.3-1.62,2.3v0.58h4.62v-0.58    c-1.32,0-1.98-0.76-1.98-2.29v-7.76l8.51,10.84L29.89,134.74z"/>
        <path style="fill:#1A1A1A;" d="M42.41,134.66v-0.58c-1.39,0-2.08-0.59-2.08-1.77v-8.88c0-0.44,0.32-0.65,0.96-0.65    c1.89,0,2.91,1.03,3.07,3.08l0.52-0.08v-4.02c-0.3,0.04-0.58,0.07-0.87,0.09c-0.28,0.03-0.56,0.04-0.83,0.04h-7.42    c-0.24,0-0.5-0.01-0.76-0.04c-0.26-0.02-0.54-0.06-0.84-0.09l-0.52,4.1l0.6,0.15c0.26-1.1,0.65-1.93,1.17-2.47    c0.53-0.55,1.21-0.82,2.06-0.82c0.63,0,0.94,0.24,0.94,0.71v8.88c0,1.18-0.69,1.77-2.06,1.77v0.58H42.41z"/>
        <path style="fill:#1A1A1A;" d="M52.31,133.74c-0.54-0.31-0.98-0.73-1.33-1.27c-0.35-0.54-0.61-1.17-0.77-1.9    c-0.17-0.73-0.25-1.52-0.25-2.36c0-0.77,0.07-1.51,0.2-2.21c0.14-0.7,0.36-1.33,0.67-1.87c0.31-0.54,0.73-0.97,1.23-1.29    c0.51-0.32,1.13-0.48,1.86-0.48c0.8,0,1.47,0.17,2.03,0.51c0.56,0.34,1.01,0.79,1.36,1.35c0.34,0.56,0.6,1.2,0.76,1.91    c0.16,0.72,0.24,1.46,0.24,2.23c0,0.82-0.08,1.59-0.24,2.3c-0.16,0.71-0.41,1.33-0.74,1.85c-0.33,0.53-0.76,0.94-1.27,1.24    c-0.51,0.3-1.13,0.45-1.85,0.45C53.49,134.2,52.85,134.05,52.31,133.74z M56.72,134.37c0.8-0.39,1.47-0.91,2.03-1.54    c0.56-0.64,0.99-1.36,1.3-2.17c0.31-0.81,0.46-1.62,0.46-2.45c0-0.94-0.16-1.8-0.48-2.6c-0.32-0.8-0.77-1.48-1.34-2.07    c-0.57-0.58-1.25-1.04-2.04-1.37c-0.79-0.33-1.66-0.49-2.59-0.49c-0.95,0-1.81,0.19-2.59,0.57c-0.78,0.38-1.44,0.88-1.99,1.5    c-0.55,0.62-0.98,1.33-1.27,2.14c-0.3,0.8-0.44,1.63-0.44,2.48c0,0.91,0.16,1.77,0.47,2.57c0.31,0.8,0.75,1.5,1.31,2.1    c0.56,0.6,1.22,1.06,2,1.4c0.77,0.34,1.61,0.51,2.52,0.51C55.04,134.95,55.93,134.76,56.72,134.37z"/>
        <path style="fill:#1A1A1A;" d="M75.14,130.27c0,0.4-0.04,0.82-0.13,1.27c-0.08,0.45-0.25,0.86-0.51,1.24    c-0.26,0.37-0.63,0.68-1.13,0.94c-0.49,0.25-1.15,0.38-1.97,0.38c-0.89,0-1.57-0.12-2.05-0.35c-0.48-0.23-0.84-0.53-1.07-0.9    c-0.23-0.37-0.37-0.78-0.42-1.23c-0.04-0.46-0.07-0.9-0.07-1.34v-6.39c0-0.94,0.61-1.41,1.83-1.41v-0.58h-5.57v0.58    c1.22,0,1.83,0.47,1.83,1.41v6.89c0,0.6,0.1,1.17,0.3,1.68c0.2,0.52,0.49,0.96,0.89,1.33c0.39,0.38,0.87,0.66,1.44,0.87    c0.57,0.21,1.24,0.31,2,0.31c1.19,0,2.15-0.12,2.87-0.36c0.72-0.24,1.27-0.57,1.67-1c0.39-0.43,0.65-0.95,0.78-1.55    c0.13-0.61,0.19-1.28,0.19-2.01v-5.87c0-1.13,0.53-1.7,1.6-1.7v-0.58h-4.47v0.58c1.32,0,1.98,0.57,1.98,1.7V130.27z"/>
        <path style="fill:#1A1A1A;" d="M84.89,127.69c-0.26,0-0.41-0.09-0.46-0.29v-3.68c0-0.72,0.24-1.08,0.73-1.08h0.93    c0.32,0,0.65,0.04,0.98,0.12c0.34,0.08,0.64,0.21,0.92,0.39c0.28,0.19,0.5,0.44,0.67,0.76c0.17,0.32,0.26,0.72,0.26,1.21    c0,0.58-0.09,1.03-0.26,1.37c-0.17,0.33-0.4,0.59-0.68,0.77c-0.28,0.18-0.6,0.3-0.97,0.35c-0.36,0.05-0.73,0.07-1.12,0.07H84.89z     M92.36,132.84c-0.14,0.58-0.37,0.87-0.68,0.87c-0.26,0-0.47-0.11-0.65-0.34c-0.18-0.22-0.34-0.5-0.47-0.82    c-0.13-0.32-0.25-0.66-0.35-1.02c-0.11-0.36-0.19-0.67-0.27-0.92c-0.14-0.41-0.41-0.84-0.82-1.28c-0.4-0.44-0.92-0.81-1.53-1.11    v-0.06c0.5-0.1,0.96-0.24,1.37-0.42c0.41-0.18,0.77-0.4,1.07-0.65c0.3-0.26,0.54-0.56,0.7-0.91c0.17-0.35,0.25-0.74,0.25-1.19    c0-0.45-0.1-0.87-0.31-1.25c-0.21-0.38-0.49-0.72-0.84-1c-0.35-0.28-0.77-0.5-1.26-0.66c-0.49-0.16-1.01-0.24-1.56-0.24    c-0.45,0-0.83,0-1.15,0.01c-0.31,0.01-0.61,0.02-0.88,0.03c-0.28,0.01-0.56,0.02-0.86,0.03c-0.29,0.01-0.65,0.01-1.08,0.01h-2.41    v0.6c1.22,0,1.83,0.41,1.83,1.23v9.11c0,0.84-0.57,1.25-1.7,1.25v0.58h5.43v-0.58c-1.18,0-1.77-0.42-1.77-1.25v-4.18    c0.05-0.14,0.25-0.21,0.6-0.21h0.58c0.46,0,0.85,0.16,1.16,0.47c0.31,0.32,0.57,0.71,0.78,1.17c0.21,0.47,0.39,0.98,0.55,1.54    c0.15,0.56,0.31,1.08,0.46,1.57c0.18,0.59,0.46,1.02,0.83,1.28c0.37,0.26,0.95,0.39,1.73,0.39c0.27,0,0.51-0.07,0.72-0.21    c0.21-0.14,0.39-0.31,0.54-0.5c0.15-0.19,0.26-0.4,0.33-0.62c0.07-0.22,0.11-0.4,0.11-0.56L92.36,132.84z"/>
        <path style="fill:#1A1A1A;" d="M107.29,134.66v-0.58c-0.33-0.09-0.59-0.16-0.78-0.2c-0.19-0.04-0.29-0.08-0.32-0.11    c-0.11-0.06-0.24-0.23-0.43-0.5l-4.56-11.44l-0.58-0.23l-4.62,11c-0.18,0.44-0.4,0.77-0.66,1c-0.26,0.23-0.58,0.36-0.95,0.38v0.67    h4.33v-0.67c-1.13,0-1.7-0.29-1.7-0.88c0-0.22,0.03-0.38,0.08-0.5l0.66-1.99c0.1-0.33,0.4-0.5,0.88-0.5h2.87    c0.64,0,1.03,0.17,1.18,0.5l0.87,2.37c0.06,0.14,0.1,0.26,0.11,0.36c0.01,0.1,0.02,0.17,0.03,0.22c0,0.08-0.06,0.15-0.16,0.2    c-0.11,0.06-0.24,0.11-0.4,0.15c-0.16,0.04-0.34,0.07-0.54,0.1c-0.2,0.03-0.39,0.05-0.57,0.08v0.58H107.29z M101.93,128.44    c0.14,0.36,0.21,0.57,0.21,0.63c0,0.16-0.19,0.23-0.58,0.23h-2.43c-0.47,0-0.71-0.1-0.71-0.29c0-0.13,0.07-0.35,0.21-0.66    l1.7-4.04L101.93,128.44z"/>
        <path style="fill:#1A1A1A;" d="M120.44,134.88v-3.97c0-0.98,0.57-1.46,1.71-1.46v-0.58h-5.51v0.58c1.31,0,1.97,0.67,1.97,2    c0,0.49-0.08,0.9-0.24,1.24c-0.16,0.34-0.38,0.62-0.66,0.84c-0.28,0.22-0.61,0.38-0.97,0.48c-0.37,0.1-0.76,0.15-1.19,0.15    c-0.72,0-1.34-0.16-1.87-0.48c-0.53-0.32-0.97-0.75-1.33-1.29c-0.36-0.54-0.63-1.17-0.8-1.89c-0.17-0.72-0.26-1.48-0.26-2.29    c0-0.74,0.07-1.47,0.22-2.18c0.15-0.71,0.39-1.33,0.73-1.88c0.34-0.55,0.78-0.98,1.32-1.31c0.54-0.33,1.2-0.49,1.98-0.49    c1.1,0,2.02,0.35,2.74,1.05c0.72,0.7,1.22,1.62,1.5,2.74h0.66c0-1.86-0.22-3.33-0.66-4.39c-0.46,0.07-0.92,0.35-1.39,0.81    c-0.49-0.26-0.98-0.48-1.49-0.67c-0.51-0.19-1.04-0.29-1.59-0.29c-0.91,0-1.75,0.19-2.51,0.58c-0.77,0.38-1.42,0.9-1.97,1.54    c-0.55,0.64-0.98,1.38-1.28,2.21c-0.3,0.83-0.45,1.69-0.45,2.57c0,0.9,0.14,1.74,0.44,2.52c0.29,0.79,0.71,1.47,1.24,2.05    c0.53,0.58,1.16,1.04,1.9,1.38c0.73,0.33,1.54,0.5,2.43,0.5c0.64,0,1.27-0.1,1.88-0.3c0.61-0.2,1.14-0.47,1.57-0.8l1.39,1.02    H120.44z"/>
        <path style="fill:#1A1A1A;" d="M135.43,134.66l0.52-3.81l-0.52-0.15c-0.19,0.54-0.38,1.01-0.57,1.4c-0.18,0.4-0.43,0.73-0.74,0.99    c-0.31,0.26-0.71,0.45-1.2,0.58c-0.5,0.12-1.15,0.18-1.96,0.18h-0.6c-1.03,0-1.54-0.37-1.54-1.1v-3.68c0-0.42,0.29-0.63,0.89-0.63    h0.23c0.41,0,0.76,0.02,1.04,0.06c0.28,0.05,0.52,0.14,0.71,0.29c0.19,0.15,0.34,0.36,0.44,0.64c0.1,0.28,0.18,0.65,0.23,1.13    h0.71v-4.99h-0.71c-0.05,0.47-0.14,0.85-0.28,1.13c-0.14,0.28-0.31,0.48-0.52,0.62c-0.21,0.13-0.46,0.22-0.73,0.25    c-0.28,0.03-0.58,0.05-0.9,0.05h-0.66c-0.31,0-0.46-0.19-0.46-0.58v-3.45c0-0.58,0.49-0.87,1.46-0.87h0.54    c0.5,0,0.96,0.02,1.39,0.05c0.43,0.03,0.8,0.14,1.13,0.33c0.33,0.19,0.61,0.47,0.84,0.86c0.23,0.39,0.4,0.92,0.52,1.62l0.6-0.08    l-0.15-3.6h-10.13v0.58c1.27,0,1.91,0.54,1.91,1.62v8.74c0,0.83-0.59,1.25-1.77,1.25v0.58H135.43z"/>
    </g>
</g>
</svg>