<svg xmlns="http://www.w3.org/2000/svg" xmlns:xlink="http://www.w3.org/1999/xlink" version="1.1" id="Layer_1" x="0px" y="0px" viewBox="0 0 270 140" style="enable-background:new 0 0 270 140;" xml:space="preserve">
<g>
    <g>
        <defs>
            <path id="path_3_" d="M4,52.8v45.3c0,20,10.2,36.3,22.9,36.3c12.6,0,22.9-16.2,22.9-36.3V61.9L4,52.8z"/>
        </defs>
        <clipPath id="path_4_">
            <use xlink:href="#path_3_" style="overflow:visible;"/>
        </clipPath>
        <path id="path_2_" style="clip-path:url(#path_4_);fill-rule:evenodd;clip-rule:evenodd;fill:#CEF5FF;" d="M4,52.8v45.3    c0,20,10.2,36.3,22.9,36.3c12.6,0,22.9-16.2,22.9-36.3V61.9L4,52.8z"/>
        <path id="path_1_" style="clip-path:url(#path_4_);fill-rule:evenodd;clip-rule:evenodd;fill:#9EECFF;" d="M0.7,62.6v39.9    c0,17.6,8.8,31.9,19.6,31.9c10.8,0,19.6-14.3,19.6-31.9V70.6L0.7,62.6z"/>
        <path id="path" style="clip-path:url(#path_4_);fill-rule:evenodd;clip-rule:evenodd;fill:#0DD1FF;" d="M-5.8,72.4v34.5    c0,15.2,7.7,27.6,17.2,27.6c9.5,0,17.2-12.3,17.2-27.6V79.3L-5.8,72.4z"/>
    </g>
    <g>
        <path style="fill:#454545;" d="M78,116.2v-7.4h2.9v13.6H78v-2.5c-0.5,0.8-1.1,1.5-1.9,2c-0.8,0.5-1.7,0.7-2.6,0.7    c-1.5,0-2.8-0.5-3.7-1.4s-1.4-2.3-1.4-4.1v-8.3h2.9v7.5c0,2.5,1,3.8,3.1,3.8c1,0,1.8-0.3,2.6-1C77.6,118.4,78,117.4,78,116.2z"/>
        <path style="fill:#454545;" d="M87.8,115.1v7.4H85v-13.6h2.9v2.5c0.5-0.8,1.1-1.5,1.9-2c0.8-0.5,1.7-0.7,2.6-0.7    c1.5,0,2.8,0.5,3.7,1.4c0.9,0.9,1.4,2.3,1.4,4.1v8.3h-2.9V115c0-2.5-1-3.8-3.1-3.8c-1,0-1.8,0.3-2.6,1    C88.2,112.8,87.8,113.8,87.8,115.1z"/>
        <path style="fill:#454545;" d="M102.5,120.7c-1.3-1.3-1.9-3-1.9-5.1s0.7-3.8,2-5.1c1.3-1.3,2.9-1.9,4.7-1.9c1.8,0,3.3,0.8,4.4,2.3    v-7.5h2.9v19h-2.9v-2c-1.1,1.5-2.6,2.2-4.6,2.2C105.3,122.6,103.8,122,102.5,120.7z M103.5,115.7c0,1.3,0.4,2.4,1.3,3.2    c0.8,0.8,1.8,1.2,2.9,1.2c1.1,0,2.1-0.4,2.9-1.2c0.8-0.8,1.2-1.9,1.2-3.2s-0.4-2.4-1.2-3.2c-0.8-0.9-1.7-1.3-2.9-1.3    s-2.1,0.4-2.9,1.3C103.9,113.3,103.5,114.4,103.5,115.7z"/>
        <path style="fill:#454545;" d="M131.3,116.9h-10.7c0.1,1,0.5,1.8,1.4,2.4c0.8,0.6,1.8,0.9,2.9,0.9c1.7,0,3-0.5,3.9-1.6l1.6,1.8    c-1.5,1.5-3.4,2.3-5.7,2.3c-1.9,0-3.5-0.6-4.9-1.9c-1.3-1.3-2-3-2-5.1c0-2.1,0.7-3.8,2-5.1c1.4-1.3,3-1.9,4.8-1.9s3.4,0.6,4.7,1.7    c1.3,1.1,1.9,2.7,1.9,4.6V116.9z M120.6,114.6h7.8c0-1.1-0.4-2-1.1-2.6c-0.7-0.6-1.6-0.9-2.6-0.9s-2,0.3-2.8,1    C121.1,112.7,120.6,113.5,120.6,114.6z"/>
        <path style="fill:#454545;" d="M141.6,111.5c-1.4,0-2.5,0.5-3.2,1.4c-0.7,0.9-1.1,2.2-1.1,3.7v5.8h-2.9v-13.6h2.9v2.7    c0.5-0.9,1.1-1.6,1.9-2.1c0.8-0.5,1.6-0.8,2.5-0.8l0,2.9C141.7,111.5,141.6,111.5,141.6,111.5z"/>
        <path style="fill:#454545;" d="M147.5,122.4h-2.9v-19h2.9V122.4z"/>
        <path style="fill:#454545;" d="M162.6,122.4H160v-1.8c-1.1,1.3-2.6,2-4.5,2c-1.4,0-2.6-0.4-3.5-1.2c-0.9-0.8-1.4-1.9-1.4-3.2    s0.5-2.3,1.5-3c1-0.7,2.3-1,4-1h3.7v-0.5c0-1.8-1-2.7-3-2.7c-1.3,0-2.6,0.5-3.9,1.4l-1.3-1.8c1.7-1.3,3.5-2,5.6-2    c1.6,0,2.9,0.4,3.9,1.2s1.5,2.1,1.5,3.8V122.4z M159.8,117.4v-1.2h-3.2c-2.1,0-3.1,0.6-3.1,1.9c0,0.7,0.3,1.2,0.8,1.5    c0.5,0.3,1.2,0.5,2.1,0.5c0.9,0,1.7-0.3,2.4-0.8C159.4,118.9,159.8,118.2,159.8,117.4z"/>
        <path style="fill:#454545;" d="M168.2,127.8c-1.2,0-2.4-0.5-3.4-1.4l1.3-2.3c0.6,0.6,1.2,0.8,1.9,0.8c0.6,0,1.2-0.2,1.6-0.7    s0.6-1,0.6-1.5c0-0.2-1.8-4.9-5.5-14h3.1l4.1,10l4.1-10h3.1l-6.6,16.2c-0.4,0.9-1,1.6-1.7,2.1    C169.9,127.6,169.1,127.8,168.2,127.8z"/>
        <path style="fill:#454545;" d="M193.8,116.9h-10.7c0.1,1,0.5,1.8,1.4,2.4c0.8,0.6,1.8,0.9,2.9,0.9c1.7,0,3-0.5,3.9-1.6l1.6,1.8    c-1.5,1.5-3.4,2.3-5.7,2.3c-1.9,0-3.5-0.6-4.9-1.9c-1.3-1.3-2-3-2-5.1c0-2.1,0.7-3.8,2-5.1c1.4-1.3,3-1.9,4.8-1.9s3.4,0.6,4.7,1.7    c1.3,1.1,1.9,2.7,1.9,4.6V116.9z M183.1,114.6h7.8c0-1.1-0.4-2-1.1-2.6c-0.7-0.6-1.6-0.9-2.6-0.9s-2,0.3-2.8,1    C183.5,112.7,183.1,113.5,183.1,114.6z"/>
        <path style="fill:#454545;" d="M204.1,111.5c-1.4,0-2.5,0.5-3.2,1.4c-0.7,0.9-1.1,2.2-1.1,3.7v5.8h-2.9v-13.6h2.9v2.7    c0.5-0.9,1.1-1.6,1.9-2.1c0.8-0.5,1.6-0.8,2.5-0.8l0,2.9C204.2,111.5,204.1,111.5,204.1,111.5z"/>
    </g>
</g>
</svg>