<svg xmlns="http://www.w3.org/2000/svg" xmlns:xlink="http://www.w3.org/1999/xlink" version="1.1" id="Layer_1" x="0px" y="0px" viewBox="0 0 100 100" style="enable-background:new 0 0 100 100;" xml:space="preserve">
<g>
    <linearGradient id="SVGID_1_" gradientUnits="userSpaceOnUse" x1="16.3765" y1="76.4503" x2="33.6319" y2="23.4626">
        <stop offset="0" style="stop-color:#FF0097"/>
        <stop offset="0.1689" style="stop-color:#FF3177"/>
        <stop offset="0.3754" style="stop-color:#FF6555"/>
        <stop offset="0.5689" style="stop-color:#FF8F3A"/>
        <stop offset="0.7435" style="stop-color:#FFAC26"/>
        <stop offset="0.893" style="stop-color:#FFBF1A"/>
        <stop offset="1" style="stop-color:#FFC516"/>
    </linearGradient>
    <path style="fill:url(#SVGID_1_);" d="M33.23,41.31c1.2-1.7,2.18-3.65,3.26-5.43c1.61-2.64,3-5.19,1.79-8.35   c-1.39-3.64-5.58-5.54-9.24-4.22c-1.86,0.67-3.4,2.13-4.18,3.95c-0.63,1.47-0.58,3.02-0.62,4.58c-0.15,7.47,0.07,15.53-2.42,22.63   c-1.02,2.91-2.43,5.53-3.92,8.23c-0.98,1.77-1.99,3.54-3.04,5.27c-1.88,3.1-1.58,7.15,2.02,8.87c3.21,1.54,7.17-0.29,8.07-3.73   c0.32-1.2,0.21-2.54,0.27-3.76c0.13-3.05,0.24-6.13,0.62-9.16c0.47-3.8,1.47-7.27,3.02-10.77c1.06-2.4,2.44-4.68,3.72-6.96   C32.79,42.08,32.99,41.68,33.23,41.31z"/>
    <linearGradient id="SVGID_2_" gradientUnits="userSpaceOnUse" x1="28.5536" y1="23.5853" x2="53.1041" y2="75.736">
        <stop offset="0" style="stop-color:#FFC516"/>
        <stop offset="1" style="stop-color:#FF7300"/>
    </linearGradient>
    <path style="fill:url(#SVGID_2_);" d="M54.14,66.69c-1.94-2.87-4.28-5.5-6.29-8.33c-1.99-2.8-3.67-5.72-4.9-8.97   c-1.48-3.89-2.15-8.11-2.85-12.22c-0.36-2.1-0.68-4.21-1-6.32c-0.37-2.4-0.72-4.66-2.63-6.38c-4.01-3.6-10.69-1.58-11.96,3.69   c-1.07,4.41,2.51,7.71,4.99,10.85c2.6,3.31,5.32,6.67,7.48,10.32c2.64,4.47,4.07,9.35,4.98,14.44c0.3,1.69,0.61,3.38,0.88,5.08   c0.46,2.88,0.84,5.74,3.71,7.22C52.32,79.08,58.24,71.76,54.14,66.69z"/>
    <linearGradient id="SVGID_3_" gradientUnits="userSpaceOnUse" x1="46.0073" y1="75.6004" x2="71.8227" y2="31.3019">
        <stop offset="0" style="stop-color:#FF7300"/>
        <stop offset="0.2396" style="stop-color:#CE4C33"/>
        <stop offset="0.5197" style="stop-color:#9A2369"/>
        <stop offset="0.7299" style="stop-color:#7A0A8A"/>
        <stop offset="0.8443" style="stop-color:#6E0097"/>
    </linearGradient>
    <path style="fill:url(#SVGID_3_);" d="M73.63,32.94c-4.96-4.99-13.86-2.63-15.51,4.29c-0.9,3.78-0.95,7.83-1.66,11.66   c-0.53,2.84-1.07,5.87-2.53,8.38c-1.39,2.38-3.31,4.4-5.38,6.28c-1.5,1.36-3.44,2.61-4.47,4.36c-1.6,2.73-0.85,6.33,1.67,8.22   c2.44,1.83,5.95,1.63,8.16-0.49c1.92-1.84,1.96-4.41,2.38-6.86c0.53-3.1,1.23-6.26,2.76-8.99c1.73-3.11,4.73-5.56,7.38-7.87   c1.76-1.53,3.56-2.98,5.36-4.44c1.67-1.36,3.15-2.68,3.94-4.79C76.99,39.34,76.15,35.48,73.63,32.94z"/>
    <linearGradient id="SVGID_4_" gradientUnits="userSpaceOnUse" x1="63.1786" y1="30.8322" x2="84.5509" y2="75.8668">
        <stop offset="0" style="stop-color:#6E0097"/>
        <stop offset="1" style="stop-color:#FF0009"/>
    </linearGradient>
    <path style="fill:url(#SVGID_4_);" d="M85.55,71.12c-1.87-2.68-4.1-4.82-5.38-7.85c-1.31-3.09-1.69-6.42-2.11-9.73   c-0.52-4.1-0.91-8.22-1.32-12.33c-0.28-2.83-0.43-5.57-2.31-7.87c-2.01-2.46-5.2-3.73-8.35-3.35c-6.55,0.79-10.27,8.3-6.92,13.99   c1.14,1.95,3.05,3.59,4.57,5.24c3.89,4.22,8.29,8.44,11.38,13.32c1.76,2.78,2.66,5.82,3.21,8.98c0.37,2.15,0.37,4.62,2.75,5.59   C84.65,78.58,87.97,74.18,85.55,71.12z"/>
</g>
</svg>