<svg xmlns="http://www.w3.org/2000/svg" xmlns:xlink="http://www.w3.org/1999/xlink" version="1.1" id="Layer_1" x="0px" y="0px" viewBox="0 0 100 100" style="enable-background:new 0 0 100 100;" xml:space="preserve">
<path style="fill-rule:evenodd;clip-rule:evenodd;fill:#4B248A;" d="M41.87,56.3c-0.79,0.79-1.05,1.84-1.05,2.89  c0,1.31,0.52,2.62,1.57,3.41c1.05,1.05,2.1,1.31,3.67,1.31c0.79,0,1.84-0.26,2.62-0.79c1.05-0.52,1.84-1.05,2.89-2.1l-6.03-7.87  C43.7,54.46,42.66,55.25,41.87,56.3z M68.62,70.2l-6.82-8.92c1.31-1.57,2.62-3.67,3.41-5.51c0.79-2.1,1.31-4.2,1.31-6.3h-7.87  c-0.26,1.31-0.26,2.36-0.52,3.15c-0.26,0.79-0.79,1.84-1.05,2.36l-4.72-6.03c0.79-0.52,1.57-1.05,2.1-1.31  c2.89-1.84,4.72-5.25,4.72-8.92c0-6.03-4.72-10.75-10.75-10.75c-6.03,0-10.75,4.72-10.75,10.75v0.52c1.84,1.57,3.15,3.93,3.67,6.56  l1.84-0.79c0.52-4.98,1.31-8.66,4.2-9.7c1.84-0.79,3.93,0.26,4.72,2.1c0.26,0.52,0.26,1.05,0.26,1.31c0,3.41-3.93,5.51-9.18,8.13  l-1.31,0.79h-0.26c-3.15,1.57-5.51,3.41-7.08,5.51c-1.57,2.1-2.36,4.2-2.36,6.82c0,3.41,1.31,6.3,3.67,8.66  c2.36,2.36,5.51,3.41,9.18,3.41c2.36,0,4.46-0.26,6.3-1.05c2.1-0.79,3.93-1.84,5.51-3.41l2.36,2.89h9.44V70.2z M50,18  c17.57,0,32,14.43,32,32S67.57,82,50,82S18,67.57,18,50S32.43,18,50,18z"/>
</svg>