<svg xmlns="http://www.w3.org/2000/svg" xmlns:xlink="http://www.w3.org/1999/xlink" version="1.1" id="Layer_1" x="0px" y="0px" viewBox="0 0 100 100" style="enable-background:new 0 0 100 100;" xml:space="preserve">
<path style="fill-rule:evenodd;clip-rule:evenodd;fill:#E60028;" d="M96.38,24.27c-2.89,1.5-9.22,4.63-12.25,4.63  c-3.03,0-4.33-1.23-2.61-3.34c1.72-2.12,2.61-7.24-2.64-2.79c-5.25,4.46-9.33,6.55-10.75,5.88c-1.42-0.67,1.69-5.07,0.17-6.16  c-1.53-1.09-2.58,2.01-5.55,5.57c-2.16,2.59-4.38,5-5.44,6.13c-0.05-0.03-0.08-0.04-0.08-0.04c-0.32-0.17-2.49,1.71-2.3,0.97  c0.19-0.74-0.07-1.63-0.18-1.35c-0.11,0.27-1.42,0.9-1.78,0.68c-0.37-0.22-2.55,1.02-1.43-0.44c1.12-1.46,0.76-3.81,0.61-2.67  c-0.15,1.15-2.97,3.36-2.16,2.12c0.81-1.24,0.72-2.68,0.7-3.15c-0.02-0.47-0.48-0.67-0.48-0.67c0.19,1.08-1.25,3.27-1.9,3.93  c-0.66,0.66-1.55,1.03-2.29,1.41c-0.73,0.37-1.34,1.31-1.34,1.31c-0.62,0.87-1.21-0.48-1.57-0.96c-0.36-0.48-0.45-0.21-0.45-0.21  c0.19,0.74-1.98-1.14-2.3-0.97c0,0-0.07,0.04-0.18,0.1c-0.59-0.51-1.49-1.31-2.51-2.31c-0.98-0.96-5.06-0.72-4.8-2.74  c0.81-6.38-1.82-7.65-2.74-6.01c-3.19,5.66-0.54,7.68-8.53,7.75c-5.42,0.05-5.8-6.95-8.95-9.48c-2.36-1.9-3.18,3.25,0.26,8.61  c1.26,1.96-5.29,0.44-9.13-1.04c-3.6-1.38-4.89,2.83-1.14,4.55c3.75,1.73,11.33,1.97,21.18,1.05c6.66-0.62,9.69,0.7,10.95,1.62  c0.2,0.53,0.64,1.31,0.67,2.05c0.04,0.98-3.02,3.16-6.55,3.99c-3.53,0.82-6.25,1.37-7.48,2.09c-1.23,0.72-1.69,2.13-1.34,3.34  c0.03,0.09,0.07,0.21,0.12,0.35c0.11,0.73,0.29,1.59,0.4,2.59c0.38,3.33,8.74,4.09,8.74,4.09l2.53-2.96c0,0,0.45-0.39,1.02-0.96  c-0.34,0.55-0.79,1.47-0.83,2.54c-0.05,1.75,0.11,5.03-0.27,5.52c-0.38,0.49,3.18-2.09,3.42-3.27c0.24-1.18,0.13,2.6,0.35,3.57  c0.21,0.97,0.35,2.55,0.19,2.93c-0.16,0.38,1.12-1.13,1.53-2.34c0.34-1.04,0.89,2.95,0.63,5.93c-0.92,1.27-1.44,2.71-1.44,4.25  c0,5,5.52,9.05,12.33,9.05c6.81,0,12.33-4.05,12.33-9.05c0-1.53-0.52-2.97-1.44-4.24c-0.27-2.98,0.28-6.98,0.63-5.94  c0.4,1.21,1.69,2.71,1.53,2.34c-0.16-0.38-0.03-1.96,0.19-2.93c0.21-0.97,0.11-4.75,0.35-3.57c0.24,1.18,3.8,3.76,3.42,3.27  c-0.38-0.49-0.22-3.77-0.27-5.52c-0.02-0.68-0.32-1.74-0.67-2.78c9.44,5.26,13.18-2.63,12.66-2.87c-0.53-0.25-1.56-0.7-2.5-1.77  c-0.94-1.07-2.79-2.84-6.32-3.66c-3.53-0.82-6.58-3-6.55-3.99c0.04-0.98,0.82-2.06,0.76-2.48c-0.02-0.15-0.13-0.08-0.27,0.08  c1.21-1.76,4.38-4.87,11.53-4.2c9.86,0.92,14.72,7.08,18.47,5.35c3.75-1.73-3.5-4.07-3.78-4.79c-0.28-0.72,9.55-3.37,10.44-5.57  C100.18,24.47,99.27,22.77,96.38,24.27"/>
</svg>