<?xml version="1.0" encoding="utf-8"?>
<!-- Generator: Adobe Illustrator 22.1.0, SVG Export Plug-In . SVG Version: 6.00 Build 0)  -->
<svg version="1.1" id="Layer_1" xmlns="http://www.w3.org/2000/svg" xmlns:xlink="http://www.w3.org/1999/xlink" x="0px" y="0px"
	 viewBox="0 0 301.7 50.9" style="enable-background:new 0 0 301.7 50.9;" xml:space="preserve">
<g style="fill:#193460;">
	<rect x="126.9" y="20.7" width="4.9" height="17.3"/>
	<path d="M132.4,15.1c0,1.7-1.4,3-3.1,3c-1.8,0-3.1-1.3-3.1-3s1.3-3,3.1-3C131.1,12.1,132.4,13.4,132.4,15.1L132.4,15.1 z"/>
	<path d="M164.6,27v11h-4.8v-9.5c0-2.5-1.3-3.9-3.5-3.9c-2.1,0-3.8,1.3-3.8,3.9V38h-4.9v-9.5c0-2.5-1.3-3.9-3.5-3.9 c-2.1,0-3.8,1.3-3.8,3.9V38h-4.9V20.7h4.7v2c1.3-1.8,3.2-2.5,5.3-2.5c2.6,0,4.7,1.1,5.9,3c1.4-2.2,3.8-3,6.1-3 C161.8,20.3,164.6,23,164.6,27"/>
	<path d="M172.1,29.4c0,2.8,2,4.8,4.8,4.8c2.7,0,4.8-2,4.8-4.8s-2.1-4.8-4.8-4.8C174.1,24.6,172.1,26.6,172.1,29.4  M186.6,29.4c0,5.2-4.1,9.1-9.8,9.1c-5.6,0-9.7-3.9-9.7-9.1s4.1-9.1,9.7-9.1C182.5,20.3,186.6,24.2,186.6,29.4"/>
	<path d="M195,17.6v6.1h5.7c2.8,0,4.3-1,4.3-3.1c0-2.1-1.5-3-4.3-3H195z M200.8,13.1c6.2,0,9.5,2.8,9.5,7.6 c0,4.1-3,6.9-8,7.4l8,10h-6.3l-7.6-9.9H195V38h-5.2v-25H200.8z"/>
	<path d="M216.5,29.4c0,2.8,2,4.8,4.8,4.8c2.7,0,4.8-2,4.8-4.8s-2.1-4.8-4.8-4.8C218.6,24.6,216.5,26.6,216.5,29.4  M231.1,29.4c0,5.2-4.1,9.1-9.8,9.1c-5.6,0-9.7-3.9-9.7-9.1s4.1-9.1,9.7-9.1C226.9,20.3,231.1,24.2,231.1,29.4"/>
	<path d="M250.5,30.6c0,5.4-4,7.8-8.5,7.8c-4.5,0-8.5-2.3-8.5-7.8v-9.9h4.9v9.5c0,2.8,1.6,3.9,3.7,3.9 c2.1,0,3.7-1.1,3.7-3.9v-9.5h4.8V30.6z"/>
	<path d="M267,24.9h-6.5v6.3c0,2.2,1.2,2.9,2.7,2.9c1.1,0,2.4-0.5,3.4-1.1l1.8,3.6c-1.6,1-3.4,1.8-6,1.8 c-4.5,0-6.7-2.4-6.7-6.9v-6.7h-3.5v-4.1h3.5v-5.1h4.8v5.1h6.5V24.9z"/>
	<path d="M273.5,27.8h8c-0.5-2.2-1.8-3.5-3.9-3.5C275.3,24.3,274,25.6,273.5,27.8 M286.4,29.4c0,0.5,0,1.2-0.1,1.6 h-12.8c0.5,2.5,2.3,3.6,4.6,3.6c1.6,0,3.2-0.6,4.5-1.7l2.8,3c-2,1.8-4.6,2.6-7.7,2.6c-5.5,0-9.4-3.6-9.4-9c0-5.4,3.7-9.1,9.1-9.1 C282.8,20.3,286.4,24,286.4,29.4"/>
	<path d="M33.9,39.8c-5.2,3.1-11.7,3.1-16.9,0c-0.8-0.5-1.9-0.4-2.6,0.3l-7.8,7.8l3,3l6.7-6.7c5.8,2.8,12.5,2.8,18.2,0 l6.8,6.8l3-3l-7.9-7.9C35.8,39.4,34.7,39.3,33.9,39.8z"/>
	<path d="M11.1,33.9c-3.1-5.2-3.1-11.7,0-16.9c0.5-0.8,0.4-1.9-0.3-2.6L3,6.6l-3,3l6.8,6.8c-2.8,5.8-2.8,12.5,0,18.2 L0,41.3l3,3l7.8-7.8C11.5,35.8,11.6,34.7,11.1,33.9"/>
	<path d="M34.6,6.8c-5.8-2.8-12.5-2.8-18.2,0L9.6,0l-3,3l7.9,7.9c0.7,0.7,1.7,0.8,2.6,0.3c5.2-3.1,11.6-3.1,16.9,0 c0.8,0.5,1.9,0.4,2.6-0.3L44.3,3l-3-3L34.6,6.8z"/>
	<path d="M30.6,30.6c-2.8,2.8-7.4,2.8-10.2,0.1l-0.1-0.1c-2.8-2.8-2.8-7.4,0-10.2c2.8-2.8,7.4-2.8,10.2,0 C33.4,23.2,33.4,27.8,30.6,30.6 M33.5,17.4c-4.5-4.5-11.7-4.5-16.2,0c-4.4,4.4-4.4,11.7-0.1,16.1l0.1,0.1 c4.5,4.4,11.7,4.3,16.1-0.1C38,29.1,38,21.8,33.5,17.4"/>
	<path d="M39.8,17c3.1,5.2,3.1,11.6,0,16.9c-0.5,0.8-0.4,1.9,0.3,2.6l7.9,7.9l3-3l-6.8-6.8c2.8-5.8,2.8-12.5,0-18.2 l6.8-6.8l-3-3l-7.9,7.9C39.4,15.1,39.3,16.2,39.8,17"/>
	<path d="M64.4,25.5c0,4.9,3.5,8.2,8.2,8.2c4.8,0,8.2-3.3,8.2-8.2c0-4.9-3.5-8.2-8.2-8.2C67.9,17.4,64.4,20.7,64.4,25.5  M86.3,25.5c0,7.5-5.7,12.9-13.7,12.9S59,33,59,25.5s5.6-12.9,13.7-12.9S86.3,18.1,86.3,25.5"/>
	<path d="M94.1,29.4c0,2.7,1.9,4.8,4.6,4.8c2.9,0,4.6-2.1,4.6-4.8s-1.8-4.8-4.6-4.8C96,24.6,94.1,26.6,94.1,29.4  M108.3,29.4c0,5.2-3.8,9.1-8.7,9.1c-2.4,0-4.1-0.9-5.3-2.2v8.9h-4.8V20.7h4.7v1.9c1.2-1.4,2.9-2.4,5.4-2.4 C104.6,20.3,108.3,24.2,108.3,29.4"/>
	<path d="M123.9,24.9h-6.5v6.3c0,2.2,1.2,2.9,2.7,2.9c1.2,0,2.4-0.5,3.4-1.1l1.8,3.6c-1.6,1-3.4,1.8-6,1.8 c-4.5,0-6.7-2.4-6.7-6.9v-6.7h-3.5v-4.1h3.5v-5.1h4.8v5.1h6.5V24.9z"/>
</g>
<g style="fill:#193460;">
	<path d="M281.9,8.5V6.7h8v1.8H287v8h-2.2v-8H281.9z"/>
	<path d="M294.1,6.7l2.3,6.7h0l2.2-6.7h3v9.8h-2V9.5h0l-2.4,6.9h-1.7l-2.4-6.9h0v6.9h-2V6.7H294.1z"/>
</g>
</svg>
