<svg xmlns="http://www.w3.org/2000/svg" xmlns:xlink="http://www.w3.org/1999/xlink" version="1.1" id="Layer_1" x="0px" y="0px" viewBox="0 0 270 140" style="enable-background:new 0 0 270 140;" xml:space="preserve">
<g>
    <path style="fill:#8B0304;" d="M14.56,100.44c7.72,0,12.19,5.44,12.19,11.47c0,6.12-4.47,11.47-12.19,11.47   s-12.19-5.36-12.19-11.47C2.37,105.88,6.84,100.44,14.56,100.44z"/>
    <path style="fill:#58595B;" d="M31.13,100.43V94h2.02v6.43h6.68v1.76h-6.68v16.21c0,2.77,1.58,3.21,4.09,3.21   c0.92,0,1.89-0.13,2.81-0.26v1.76c-1.05,0.22-2.33,0.26-3.43,0.26c-4.7,0-5.49-1.76-5.49-6.06v-15.11   C31.13,102.19,31.13,100.43,31.13,100.43z"/>
    <path style="fill:#58595B;" d="M53.58,100.44c7.72,0,12.19,5.44,12.19,11.47c0,6.12-4.47,11.47-12.19,11.47   s-12.19-5.36-12.19-11.47C41.39,105.88,45.86,100.44,53.58,100.44z M53.58,121.7c6.88,0,10.25-4.89,10.25-9.79   c0-4.89-3.37-9.79-10.25-9.79c-6.88,0-10.25,4.89-10.25,9.79C43.33,116.81,46.71,121.7,53.58,121.7z"/>
    <path style="fill:#58595B;" d="M89.53,107.91c-0.21-2.7-3.97-5.78-9.15-5.78c-6.88,0-10.25,4.85-10.25,10   c0,3.5,2.45,9.58,10.25,9.58c4.39,0,8.44-2.07,9.45-6.54h1.94c-1.14,5.65-5.99,8.23-11.39,8.23c-7.09,0-12.19-4.56-12.19-11.26   c0-7.59,5.57-11.69,12.19-11.69c6.58,0,10.88,3.8,11.09,7.47C91.47,107.91,89.53,107.91,89.53,107.91z"/>
    <rect x="74.85" y="94.25" style="fill:#58595B;" width="10.84" height="1.9"/>
    <path style="fill:#58595B;" d="M95,94.29h2.06v18.31l16.35-12.19h3.05l-11.61,8.65l12.68,14.29h-2.82l-11.47-12.99l-6.18,4.57v8.42   H95L95,94.29L95,94.29z"/>
    <path style="fill:#58595B;" d="M143.03,121.73c-1.48,0-1.43-0.97-1.43-2.57v-6.84l-0.04-0.01c0-0.13,0.02-0.27,0.02-0.4   c0-6.03-4.47-11.47-12.19-11.47c-7.72,0-12.19,5.44-12.19,11.47c0,6.12,4.47,11.47,12.19,11.47c4.96,0,8.57-2.22,10.52-5.42l0,0.72   c0,2.87,0,4.73,2.66,4.73c0.97,0,1.73-0.13,2.36-0.34v-1.69C144.25,121.6,143.62,121.73,143.03,121.73z M129.38,121.7   c-6.88,0-10.25-4.89-10.25-9.79c0-4.89,3.37-9.79,10.25-9.79c6.88,0,10.25,4.89,10.25,9.79   C139.63,116.81,136.26,121.7,129.38,121.7z"/>
    <g>
        <path style="fill:#58595B;" d="M2.54,128.51v-0.91h0.34v0.91H2.54z M2.54,133.9v-4.53h0.34v4.53H2.54z"/>
        <path style="fill:#58595B;" d="M5.7,129.36h0.33v0.97h0.02c0.24-0.68,0.91-1.08,1.62-1.08c1.6,0,1.61,1.28,1.61,1.83v2.8H8.95    v-2.87c0-0.46-0.05-1.48-1.29-1.48c-1.02,0-1.63,0.79-1.63,1.89v2.45H5.7V129.36z"/>
        <path style="fill:#58595B;" d="M13.7,129.66h-0.99v3.16c0,0.72,0.34,0.81,0.98,0.78v0.29c-0.67,0.04-1.36-0.05-1.31-1.08v-3.16    h-0.84v-0.29h0.84v-1.41h0.33v1.41h0.99V129.66z"/>
        <path style="fill:#58595B;" d="M16.21,131.67c-0.03,1.07,0.55,2.04,1.67,2.04c0.85,0,1.45-0.5,1.62-1.35h0.34    c-0.18,1.07-0.87,1.64-1.96,1.64c-1.31,0-2.03-1.04-2-2.29c-0.03-1.24,0.63-2.45,2-2.45c1.41,0,2.06,1.11,1.99,2.42    C19.87,131.67,16.21,131.67,16.21,131.67z M19.54,131.38c-0.03-0.95-0.63-1.83-1.66-1.83c-1,0-1.6,0.93-1.67,1.83H19.54z"/>
        <path style="fill:#58595B;" d="M22.75,130.37h0.03c0.17-0.6,0.92-1.06,1.74-1.03v0.33c-0.35-0.04-0.84,0.04-1.25,0.44    c-0.33,0.35-0.49,0.63-0.51,1.3v2.48h-0.33v-4.53h0.33V130.37z"/>
        <path style="fill:#58595B;" d="M29.97,133.06c0,0.26-0.01,0.55,0.3,0.55c0.06,0,0.14-0.01,0.25-0.03v0.28    c-0.1,0.03-0.18,0.04-0.27,0.04c-0.53,0-0.61-0.29-0.61-0.66V133h-0.02c-0.21,0.54-0.81,1.01-1.68,1.01    c-0.85,0-1.52-0.33-1.52-1.28c0-1.07,0.92-1.27,1.67-1.34c1.5-0.1,1.56-0.21,1.56-0.94c0-0.2-0.23-0.89-1.26-0.89    c-0.81,0-1.35,0.42-1.39,1.21h-0.33c0.04-1,0.66-1.5,1.73-1.5c0.79,0,1.59,0.24,1.59,1.18L29.97,133.06L29.97,133.06z     M29.64,131.32c-0.26,0.31-0.99,0.26-1.64,0.35c-0.8,0.1-1.24,0.37-1.24,1.05c0,0.55,0.39,0.99,1.19,0.99    c1.53,0,1.69-1.3,1.69-1.54C29.64,132.17,29.64,131.32,29.64,131.32z"/>
        <path style="fill:#58595B;" d="M36.21,130.77c-0.07-0.8-0.71-1.22-1.53-1.22c-1.13,0-1.74,1-1.74,2.04c0,1.23,0.57,2.13,1.74,2.13    c0.85,0,1.46-0.59,1.58-1.41h0.34c-0.14,1.08-0.94,1.7-1.91,1.7c-1.47,0-2.08-1.15-2.08-2.42s0.74-2.33,2.08-2.33    c0.98,0,1.77,0.49,1.87,1.51H36.21z"/>
        <path style="fill:#58595B;" d="M40.8,129.66h-0.99v3.16c0,0.72,0.34,0.81,0.98,0.78v0.29c-0.67,0.04-1.36-0.05-1.31-1.08v-3.16    h-0.84v-0.29h0.84v-1.41h0.33v1.41h0.99V129.66z"/>
        <path style="fill:#58595B;" d="M43.26,128.51v-0.91h0.34v0.91H43.26z M43.26,133.9v-4.53h0.34v4.53H43.26z"/>
        <path style="fill:#58595B;" d="M48.15,133.9h-0.41l-1.82-4.53h0.39l1.64,4.14h0.02l1.53-4.14h0.37L48.15,133.9z"/>
        <path style="fill:#58595B;" d="M52.23,131.67c-0.03,1.07,0.55,2.04,1.67,2.04c0.85,0,1.45-0.5,1.62-1.35h0.33    c-0.18,1.07-0.87,1.64-1.96,1.64c-1.31,0-2.03-1.04-2-2.29c-0.03-1.24,0.63-2.45,2-2.45c1.41,0,2.06,1.11,1.99,2.42    C55.89,131.67,52.23,131.67,52.23,131.67z M55.55,131.38c-0.03-0.95-0.63-1.83-1.66-1.83c-1.01,0-1.6,0.93-1.67,1.83H55.55z"/>
        <path style="fill:#58595B;" d="M66.06,130.77c-0.07-0.8-0.71-1.22-1.53-1.22c-1.13,0-1.74,1-1.74,2.04c0,1.23,0.57,2.13,1.74,2.13    c0.85,0,1.46-0.59,1.58-1.41h0.34c-0.14,1.08-0.94,1.7-1.91,1.7c-1.47,0-2.08-1.15-2.08-2.42s0.74-2.33,2.08-2.33    c0.98,0,1.77,0.49,1.87,1.51H66.06z"/>
        <path style="fill:#58595B;" d="M70.85,129.26c1.34,0,2.08,1.08,2.08,2.37c0,1.3-0.74,2.37-2.08,2.37s-2.08-1.08-2.08-2.37    C68.77,130.34,69.51,129.26,70.85,129.26z M70.85,133.71c1.13,0,1.74-1,1.74-2.08c0-1.08-0.62-2.08-1.74-2.08    c-1.13,0-1.74,1-1.74,2.08C69.11,132.71,69.72,133.71,70.85,133.71z"/>
        <path style="fill:#58595B;" d="M75.49,129.36h0.34v0.93h0.02c0.14-0.57,0.74-1.03,1.42-1.03c0.86,0,1.27,0.49,1.37,0.96h0.02    c0.27-0.63,0.7-0.96,1.44-0.96c0.82,0,1.42,0.49,1.42,1.54v3.09h-0.34v-3.1c0-1.16-0.83-1.24-1.08-1.24    c-0.82,0-1.42,0.57-1.42,1.67v2.68h-0.33v-3.1c0-1.14-0.78-1.24-1.07-1.24c-0.64,0-1.44,0.5-1.44,1.67v2.68h-0.34L75.49,129.36    L75.49,129.36z"/>
        <path style="fill:#58595B;" d="M84.26,129.36h0.34v0.93h0.02c0.14-0.57,0.74-1.03,1.42-1.03c0.86,0,1.27,0.49,1.37,0.96h0.02    c0.27-0.63,0.7-0.96,1.44-0.96c0.82,0,1.42,0.49,1.42,1.54v3.09h-0.34v-3.1c0-1.16-0.83-1.24-1.08-1.24    c-0.82,0-1.42,0.57-1.42,1.67v2.68H87.1v-3.1c0-1.14-0.78-1.24-1.07-1.24c-0.64,0-1.44,0.5-1.44,1.67v2.68h-0.34L84.26,129.36    L84.26,129.36z"/>
        <path style="fill:#58595B;" d="M96.62,133.9h-0.34v-0.97h-0.02c-0.24,0.68-0.91,1.08-1.62,1.08c-1.6,0-1.61-1.28-1.61-1.83v-2.8    h0.34v2.87c0,0.46,0.05,1.48,1.29,1.48c1.02,0,1.63-0.79,1.63-1.9v-2.45h0.34V133.9z"/>
        <path style="fill:#58595B;" d="M99.37,129.36h0.33v0.97h0.02c0.24-0.68,0.91-1.08,1.62-1.08c1.6,0,1.61,1.28,1.61,1.83v2.8h-0.34    v-2.87c0-0.46-0.05-1.48-1.29-1.48c-1.02,0-1.63,0.79-1.63,1.89v2.45h-0.33V129.36z"/>
        <path style="fill:#58595B;" d="M105.78,128.51v-0.91h0.34v0.91H105.78z M105.78,133.9v-4.53h0.34v4.53H105.78z"/>
        <path style="fill:#58595B;" d="M112.36,130.77c-0.07-0.8-0.71-1.22-1.53-1.22c-1.13,0-1.74,1-1.74,2.04    c0,1.23,0.57,2.13,1.74,2.13c0.85,0,1.46-0.59,1.58-1.41h0.34c-0.14,1.08-0.94,1.7-1.91,1.7c-1.47,0-2.08-1.15-2.08-2.42    s0.74-2.33,2.08-2.33c0.98,0,1.77,0.49,1.87,1.51H112.36z"/>
        <path style="fill:#58595B;" d="M118.62,133.06c0,0.26-0.01,0.55,0.3,0.55c0.06,0,0.14-0.01,0.25-0.03v0.28    c-0.1,0.03-0.18,0.04-0.27,0.04c-0.53,0-0.61-0.29-0.61-0.66V133h-0.02c-0.21,0.54-0.81,1.01-1.68,1.01    c-0.85,0-1.52-0.33-1.52-1.28c0-1.07,0.92-1.27,1.67-1.34c1.5-0.1,1.56-0.21,1.56-0.94c0-0.2-0.23-0.89-1.26-0.89    c-0.81,0-1.35,0.42-1.39,1.21h-0.33c0.04-1,0.66-1.5,1.73-1.5c0.79,0,1.59,0.24,1.59,1.18V133.06z M118.29,131.32    c-0.26,0.31-0.99,0.26-1.64,0.35c-0.8,0.1-1.24,0.37-1.24,1.05c0,0.55,0.39,0.99,1.19,0.99c1.53,0,1.69-1.3,1.69-1.54V131.32z"/>
        <path style="fill:#58595B;" d="M123.12,129.66h-0.99v3.16c0,0.72,0.34,0.81,0.98,0.78v0.29c-0.67,0.04-1.36-0.05-1.31-1.08v-3.16    h-0.84v-0.29h0.84v-1.41h0.33v1.41h0.99V129.66z"/>
        <path style="fill:#58595B;" d="M125.57,128.51v-0.91h0.34v0.91H125.57z M125.57,133.9v-4.53h0.34v4.53H125.57z"/>
        <path style="fill:#58595B;" d="M130.61,129.26c1.34,0,2.08,1.08,2.08,2.37c0,1.3-0.74,2.37-2.08,2.37s-2.08-1.08-2.08-2.37    C128.53,130.34,129.27,129.26,130.61,129.26z M130.61,133.71c1.13,0,1.74-1,1.74-2.08c0-1.08-0.62-2.08-1.74-2.08    c-1.13,0-1.74,1-1.74,2.08C128.86,132.71,129.48,133.71,130.61,133.71z"/>
        <path style="fill:#58595B;" d="M135.23,129.36h0.34v0.97h0.02c0.24-0.68,0.91-1.08,1.62-1.08c1.6,0,1.61,1.28,1.61,1.83v2.8h-0.34    v-2.87c0-0.46-0.05-1.48-1.29-1.48c-1.02,0-1.63,0.79-1.63,1.89v2.45h-0.34L135.23,129.36L135.23,129.36z"/>
        <path style="fill:#58595B;" d="M141.73,132.39c0.04,0.84,0.69,1.32,1.5,1.32c0.59,0,1.44-0.18,1.44-0.96    c0-1.53-3.11-0.48-3.11-2.33c0-0.89,0.87-1.16,1.64-1.16c0.95,0,1.67,0.41,1.67,1.45h-0.33c0-0.82-0.58-1.16-1.34-1.16    c-0.61,0-1.3,0.23-1.3,0.87c0,0.73,0.78,0.83,1.51,1c0.9,0.17,1.6,0.39,1.6,1.33c0,0.98-0.98,1.25-1.77,1.25    c-1.03,0-1.81-0.56-1.83-1.61C141.4,132.39,141.73,132.39,141.73,132.39z"/>
    </g>
</g>
</svg>