<svg xmlns="http://www.w3.org/2000/svg" xmlns:xlink="http://www.w3.org/1999/xlink" version="1.1" id="Layer_1" x="0px" y="0px" viewBox="0 0 270 140" style="enable-background:new 0 0 270 140;" xml:space="preserve">
<g>
    <g>
        <path style="fill:#2A2B33;" d="M69.9,101.6c-0.3-0.7,0-1.3,0.8-1.3h4.6c0.5,0,0.8,0.2,1,0.6L81,112c0,0,0.1,0,0.1,0l5-11.1    c0.3-0.6,0.8-0.6,1.4-0.6h4.1c0.8,0,1.2,0.6,0.8,1.3l-10.1,21.1c-0.2,0.3-0.5,0.6-1,0.6h-0.3c-0.5,0-0.8-0.3-1-0.6L69.9,101.6z"/>
        <path style="fill:#2A2B33;" d="M94.5,92.5c0-2.1,1.7-3.8,3.8-3.8s3.9,1.7,3.9,3.8c0,2.1-1.7,3.9-3.9,3.9S94.5,94.6,94.5,92.5z     M95.4,101.3c0-0.6,0.5-1.1,1.1-1.1h3.9c0.5,0,1.1,0.4,1.1,1.1v20.4c0,0.6-0.5,1.1-1.1,1.1h-3.9c-0.5,0-1.1-0.5-1.1-1.1V101.3z"/>
        <path style="fill:#2A2B33;" d="M106.9,89.7c0-0.5,0.5-1.1,1.1-1.1h3.9c0.6,0,1.1,0.5,1.1,1.1v11c1-0.4,3.3-1,5.5-1    c6.7,0,10.9,5.2,10.9,11.7c0,6.4-4.4,11.8-10.6,11.8c-4.9,0-7.5-3.4-7.5-3.4l-0.5,1.8c-0.2,0.6-0.6,1.1-1.1,1.1H108    c-0.5,0-1.1-0.5-1.1-1.1V89.7z M117.9,117.7c3.5,0,5.3-3.1,5.3-6.2c0-3.2-1.9-6.2-5.6-6.2c-2.8,0-4.7,1.3-4.7,1.3v8    C113.5,115.9,115,117.7,117.9,117.7z"/>
        <path style="fill:#2A2B33;" d="M132.6,89.7c0-0.5,0.5-1.1,1.1-1.1h3.9c0.6,0,1.1,0.5,1.1,1.1v11c1-0.4,3.3-1,5.5-1    c6.7,0,10.9,5.2,10.9,11.7c0,6.4-4.4,11.8-10.6,11.8c-4.9,0-7.5-3.4-7.5-3.4l-0.5,1.8c-0.2,0.6-0.6,1.1-1.1,1.1h-1.7    c-0.5,0-1.1-0.5-1.1-1.1V89.7z M143.7,117.7c3.5,0,5.3-3.1,5.3-6.2c0-3.2-1.9-6.2-5.6-6.2c-2.8,0-4.7,1.3-4.7,1.3v8    C139.2,115.9,140.8,117.7,143.7,117.7z"/>
        <path style="fill:#2A2B33;" d="M156.5,101.7c-0.3-0.8,0.1-1.5,1-1.5h4.7c0.5,0,0.8,0.2,0.9,0.6l4,13.4h0.1l5.1-13.4    c0.3-0.6,0.7-0.6,1.4-0.6h4.1c0.9,0,1.3,0.7,1,1.5l-13.2,31.9c-0.1,0.3-0.5,0.7-1,0.7H160c-0.9,0-1.3-0.7-1-1.5l4.5-11.4    L156.5,101.7z"/>
    </g>
    <linearGradient id="SVGID_1_" gradientUnits="userSpaceOnUse" x1="29.7548" y1="72.9346" x2="29.7548" y2="134.7178">
        <stop offset="0" style="stop-color:#2CA3FF"/>
        <stop offset="1" style="stop-color:#6A7BFF"/>
    </linearGradient>
    <path style="fill:url(#SVGID_1_);" d="M40.3,91c-0.6-0.2-1.9-0.9-2.5-1.1c-1.3-0.5-2.6-0.9-3.9-1.2c-3-0.7-6.1-1-9.2-0.9   c-3.1,0.1-6.2,0.5-9.1,1.5c-2.1,0.7-4.9,1.7-6,3.8c0,0-0.1,0.1,0-0.1c0,0.1-0.2,0.3-0.1,0.3c0,0.4-0.2,1-0.2,1.4   c-0.1,0.9,0,1.8,0.1,2.7c0.2,1.9,0.7,3.7,1.3,5.6c1.1,3.7,2.6,7.3,4.4,10.8c1.7,3.2,3.6,6.4,5.9,9.2c1.6,1.9,4.1,4.8,6.8,4.8   c0,0-0.1,0-0.1,0c0.1,0,0.6,0,0.6,0c3.2-0.3,5.8-3,7.8-5.3c2.4-2.7,4.4-5.8,6.3-8.9c2-3.3,3.7-6.6,5.3-10.1   c1.4-3.1,2.8-6.3,3.5-9.7c0,0,0,0.1,0,0.1c0-0.4,0.2-0.8,0.1-1.1c0.2-4.3-4-7.6-7.4-9.5c-4-2.3-8.8-3.7-13.4-4.2   c-4.5-0.5-9.3-0.3-13.7,0.5c-1.1,0.2-3.3,1.3-4.2,0.3c-0.9-1,0-1.9,1-2.3c3.3-1.4,7-2,10.6-2.3c4.7-0.5,9.3-0.5,13.9,0.5   c8.4,1.8,19.3,7,19.6,16.9c0.1,3.6-1.2,7.3-2.4,10.7c-1.7,4.7-3.9,9.4-6.3,13.8c-2.3,4.1-5,8.1-8.3,11.6c-3,3.2-7,6.2-11.5,6.5   c-8.1,0.6-14.2-7.1-17.9-13.2c-2.4-4-4.4-8.3-5.9-12.7c-1.6-4.5-3-9.5-2.7-14.3c0.2-3.6,1.5-6.2,4.4-8.4c3.6-2.7,8.5-3.8,12.9-4.1   c4.5-0.3,9.1,0.1,13.4,1.2c2.1,0.6,4.2,1.3,6.2,2.3c1.2,0.6,3.3,1.3,3.9,2.6C43.9,90.1,41.9,91.9,40.3,91z"/>
</g>
</svg>