<svg xmlns="http://www.w3.org/2000/svg" xmlns:xlink="http://www.w3.org/1999/xlink" version="1.1" id="Layer_1" x="0px" y="0px" viewBox="0 0 270 140" style="enable-background:new 0 0 270 140;" xml:space="preserve">
<g>
    <rect x="7.02" y="119.14" style="opacity:0.6;fill:#9D9DA0;enable-background:new    ;" width="124.77" height="0.41"/>
    <path style="fill:#212127;" d="M8.66,111.84c0.51,0,1.02-0.4,1.24-1.01l3.97-10.57c0.21-0.56,0.06-1.01-0.38-1.01h-1.77   c-0.51,0-1.03,0.4-1.24,1.01l-2.5,7.16l-2.5-7.16c-0.21-0.61-0.73-1.01-1.24-1.01H2.47c-0.43,0-0.58,0.45-0.38,1.01l3.97,10.57   c0.23,0.61,0.74,1.01,1.24,1.01H8.66z"/>
    <path style="fill:#212127;" d="M16.62,95.43c-0.32,0-0.57,0.31-0.57,0.71v10.9c0,0.4,0.25,0.7,0.57,0.7h2.05   c0.32,0,0.56-0.31,0.56-0.7v-10.9c0-0.4-0.24-0.71-0.56-0.71L16.62,95.43L16.62,95.43z"/>
    <path style="fill:#66B245;" d="M19.27,110.43c0-0.82-0.4-1.32-1.05-1.32h-1.15c-0.66,0-1.05,0.49-1.05,1.32v0.4   c0,0.82,0.39,1.32,1.05,1.32h1.15c0.66,0,1.05-0.5,1.05-1.32V110.43z"/>
    <path style="fill:#212127;" d="M30.15,99.71c0-0.4-0.24-0.7-0.57-0.7c-2.07,0-3.03,0.7-4.09,1.67v-0.73c0-0.4-0.24-0.7-0.56-0.7   h-2.05c-0.32,0-0.56,0.31-0.56,0.7v11.18c0,0.4,0.24,0.71,0.56,0.71h2.05c0.32,0,0.56-0.31,0.56-0.71v-7.34   c0.68-1.01,1.43-1.69,2.37-1.69c0.49,0,0.98,0.07,1.41,0.07h0.3c0.32,0,0.57-0.31,0.57-0.7V99.71z"/>
    <path style="fill:#212127;" d="M38.62,111.84c0.32-0.07,0.57-0.35,0.57-0.71v-1.22c0-0.4-0.25-0.71-0.57-0.71h-0.34   c-0.41,0-0.77,0.14-1.26,0.14c-0.96,0-1.62-0.85-1.62-2.45v-4.21h2.56c0.32,0,0.57-0.31,0.57-0.71v-1.37c0-0.4-0.25-0.71-0.57-0.71   H35.4v-3.84c0-0.4-0.24-0.7-0.57-0.7h-2.05c-0.32,0-0.57,0.31-0.57,0.7v10.83c0,3.53,1.32,5.18,3.95,5.18   C37.02,112.07,38.05,111.98,38.62,111.84"/>
    <path style="fill:#212127;" d="M44.44,99.95c0-0.4-0.24-0.71-0.57-0.71h-2.05c-0.32,0-0.57,0.31-0.57,0.71v6.59   c0,3.91,1.73,5.53,4.18,5.53c1.41,0,2.35-0.75,3.22-1.67v0.73c0,0.4,0.24,0.71,0.56,0.71h2.05c0.32,0,0.56-0.31,0.56-0.71V99.95   c0-0.4-0.24-0.71-0.56-0.71h-2.05c-0.32,0-0.56,0.31-0.56,0.71v7.7c-0.68,0.85-1.54,1.65-2.47,1.65c-1.04,0-1.75-0.8-1.75-2.75   C44.44,106.54,44.44,99.95,44.44,99.95z"/>
    <path style="fill:#212127;" d="M64.41,108.35c0-4.8-6.95-3.67-6.95-5.62c0-0.66,0.53-1.11,1.83-1.11c0.81,0,1.51,0.28,1.83,0.78   c0.25,0.38,0.58,0.61,1.06,0.61h1.37c0.32,0,0.57-0.31,0.57-0.71c0-2.45-1.96-3.29-5.05-3.29c-2.65,0-4.78,1.06-4.78,3.72   c0,4.75,6.95,3.67,6.95,5.62c0,0.66-0.53,1.11-2.11,1.11c-0.81,0-1.51-0.28-1.83-0.78c-0.25-0.38-0.58-0.61-1.05-0.61h-1.38   c-0.32,0-0.56,0.31-0.56,0.71c0,2.45,1.96,3.3,5.05,3.3C62.29,112.07,64.41,111.01,64.41,108.35"/>
    <path style="fill:#212127;" d="M84.41,111.13V96.07c0-0.4-0.25-0.71-0.57-0.71h-2.05c-0.32,0-0.57,0.31-0.57,0.71v3.53   c-0.77-0.31-1.52-0.59-2.65-0.59c-2.94,0-4.93,2.21-4.93,6.54c0,4.31,1.98,6.52,4.65,6.52c1.34,0,2.37-0.54,3.22-1.29v0.35   c0,0.4,0.24,0.71,0.57,0.71h1.77C84.16,111.84,84.41,111.53,84.41,111.13 M81.23,108.26c-0.66,0.52-1.51,1.04-2.18,1.04   c-1.51,0-2.13-1.15-2.13-3.74c0-2.61,0.62-3.77,2.32-3.77c0.47,0,1.22,0.16,2,0.47C81.23,102.26,81.23,108.26,81.23,108.26z"/>
    <path style="fill:#212127;" d="M90.07,111.84c0.32,0,0.57-0.31,0.57-0.71v-10.9c0-0.4-0.24-0.7-0.57-0.7h-2.05   c-0.32,0-0.56,0.31-0.56,0.7v10.9c0,0.4,0.24,0.71,0.56,0.71L90.07,111.84L90.07,111.84z"/>
    <path style="fill:#212127;" d="M101.88,102.73c0.4-0.49,0.66-0.9,0.66-1.67v-1.1c0-0.4-0.25-0.71-0.57-0.71H93.6   c-0.32,0-0.56,0.31-0.56,0.71v1.36c0,0.4,0.24,0.71,0.56,0.71h4.93l-4.84,6.33c-0.4,0.49-0.66,0.9-0.66,1.67v1.11   c0,0.4,0.24,0.71,0.56,0.71h8.45c0.32,0,0.56-0.31,0.56-0.71v-1.36c0-0.4-0.24-0.71-0.56-0.71h-5.18L101.88,102.73z"/>
    <path style="fill:#212127;" d="M114.99,111.13v-7.11c0-3.6-2.13-5.01-4.84-5.01c-3.05,0-5.01,0.85-5.01,3.29   c0,0.4,0.25,0.71,0.57,0.71h1.38c0.47,0,0.81-0.24,1.06-0.61c0.32-0.49,1.02-0.78,1.79-0.78c1.26,0,1.88,0.56,1.88,2.4h-3.05   c-2.47,0-4.35,1.34-4.35,4s1.88,4.05,4.35,4.05c1.45,0,2.49-0.54,3.33-1.29v0.35c0,0.4,0.24,0.71,0.56,0.71h1.77   C114.74,111.84,114.99,111.53,114.99,111.13 M111.8,108.42c-0.66,0.52-1.6,1.04-2.73,1.04c-0.98,0-1.49-0.61-1.49-1.44   c0-0.78,0.51-1.39,1.39-1.39h2.82V108.42z"/>
    <path style="fill:#212127;" d="M121.37,100.23c0-0.4-0.24-0.71-0.57-0.71h-2.05c-0.32,0-0.56,0.31-0.56,0.71v10.31   c0,2.07-0.66,2.68-1.22,2.68c-0.36,0-0.6-0.17-0.94-0.17h-0.28c-0.32,0-0.56,0.31-0.56,0.71v1.25c0,0.35,0.24,0.61,0.56,0.71   c0.57,0.16,1.51,0.23,2.07,0.23c2.24,0,3.56-1.65,3.56-5.41V100.23z"/>
    <path style="fill:#212127;" d="M131.82,111.13c0,0.4,0.24,0.71,0.56,0.71h2.05c0.32,0,0.57-0.31,0.57-0.71v-6.59   c0-3.91-1.73-5.53-4.18-5.53c-1.41,0-2.35,0.75-3.22,1.67v-0.73c0-0.4-0.24-0.71-0.57-0.71h-2.05c-0.32,0-0.57,0.31-0.57,0.71   v11.18c0,0.4,0.25,0.71,0.57,0.71h2.05c0.32,0,0.57-0.31,0.57-0.71v-7.69c0.68-0.85,1.54-1.65,2.47-1.65c1.03,0,1.75,0.8,1.75,2.75   C131.82,104.54,131.82,111.13,131.82,111.13z"/>
    <path style="fill:#66B245;" d="M2.05,126.94c0.03-0.03,0.07-0.05,0.12-0.05h0.85c0.04,0,0.08,0.02,0.11,0.05   c0.03,0.03,0.05,0.07,0.05,0.11v7.42c0,0.04-0.02,0.08-0.05,0.11c-0.03,0.03-0.07,0.05-0.11,0.05H2.16c-0.04,0-0.08-0.02-0.12-0.05   C2.02,134.56,2,134.52,2,134.48v-7.42C2,127.01,2.02,126.97,2.05,126.94 M8.12,134.48c0,0.04-0.02,0.08-0.05,0.11   c-0.03,0.03-0.07,0.05-0.11,0.05H7.1c-0.04,0-0.08-0.02-0.12-0.05c-0.03-0.03-0.05-0.07-0.05-0.11v-7.42   c0-0.04,0.02-0.08,0.05-0.11c0.03-0.03,0.07-0.05,0.12-0.05h0.83c0.01,0,0.04,0.01,0.07,0.03c0.03,0.02,0.05,0.03,0.06,0.05   l3.54,5.36v-5.28c0-0.04,0.02-0.08,0.05-0.11c0.03-0.03,0.07-0.05,0.11-0.05h0.85c0.04,0,0.08,0.02,0.11,0.05   c0.03,0.03,0.05,0.07,0.05,0.11v7.42c0,0.04-0.02,0.08-0.05,0.11c-0.03,0.03-0.07,0.05-0.11,0.05h-0.83   c-0.01,0-0.04-0.01-0.07-0.03c-0.03-0.02-0.05-0.03-0.06-0.05l-3.54-5.38V134.48z M19.11,134.59c-0.03,0.03-0.07,0.05-0.11,0.05   h-0.85c-0.04,0-0.08-0.02-0.11-0.05c-0.03-0.03-0.05-0.07-0.05-0.11v-6.53h-1.97c-0.04,0-0.08-0.02-0.11-0.05   c-0.03-0.03-0.05-0.07-0.05-0.12v-0.73c0-0.04,0.02-0.08,0.05-0.11c0.03-0.03,0.07-0.05,0.11-0.05h5.11c0.04,0,0.08,0.02,0.11,0.05   c0.03,0.03,0.05,0.07,0.05,0.11v0.73c0,0.04-0.02,0.08-0.05,0.12c-0.03,0.03-0.07,0.05-0.11,0.05h-1.97v6.53   C19.16,134.52,19.14,134.56,19.11,134.59 M24.42,126.94c0.03-0.03,0.07-0.05,0.11-0.05h4.63c0.04,0,0.08,0.02,0.11,0.05   c0.03,0.03,0.05,0.07,0.05,0.11v0.73c0,0.04-0.02,0.08-0.05,0.12c-0.03,0.03-0.07,0.05-0.11,0.05h-3.61v2.26h3.06   c0.04,0,0.08,0.02,0.11,0.05c0.03,0.03,0.05,0.07,0.05,0.11v0.72c0,0.04-0.02,0.08-0.05,0.11c-0.03,0.03-0.07,0.05-0.11,0.05h-3.06   v2.33h3.61c0.04,0,0.08,0.02,0.11,0.05c0.03,0.03,0.05,0.07,0.05,0.11v0.73c0,0.04-0.02,0.08-0.05,0.11   c-0.03,0.03-0.07,0.05-0.11,0.05h-4.63c-0.04,0-0.08-0.02-0.11-0.05c-0.03-0.03-0.05-0.07-0.05-0.11v-7.42   C24.37,127.01,24.39,126.97,24.42,126.94 M33.85,131.38v3.1c0,0.04-0.02,0.08-0.05,0.11c-0.03,0.03-0.07,0.05-0.11,0.05h-0.85   c-0.04,0-0.08-0.02-0.11-0.05c-0.03-0.03-0.05-0.07-0.05-0.11v-7.42c0-0.04,0.02-0.08,0.05-0.11c0.03-0.03,0.07-0.05,0.11-0.05   h2.84c0.37,0,0.7,0.05,0.99,0.17c0.29,0.11,0.55,0.27,0.76,0.47c0.21,0.2,0.37,0.44,0.48,0.72c0.11,0.28,0.17,0.58,0.17,0.91   c0,0.52-0.14,0.95-0.41,1.29c-0.28,0.34-0.65,0.59-1.13,0.76l1.67,3.19c0.04,0.06,0.04,0.12,0.01,0.17   c-0.03,0.05-0.08,0.07-0.16,0.07h-1c-0.01,0-0.04-0.01-0.08-0.03c-0.04-0.02-0.06-0.04-0.07-0.06l-1.59-3.18L33.85,131.38   L33.85,131.38z M33.85,130.37h1.74c0.39,0,0.71-0.1,0.95-0.32c0.24-0.21,0.36-0.51,0.36-0.89c0-0.38-0.12-0.68-0.36-0.9   c-0.24-0.22-0.56-0.32-0.95-0.32h-1.74V130.37z M42.71,134.48c0,0.04-0.02,0.08-0.05,0.11c-0.03,0.03-0.07,0.05-0.11,0.05H41.7   c-0.04,0-0.08-0.02-0.11-0.05c-0.03-0.03-0.05-0.07-0.05-0.11v-7.42c0-0.04,0.02-0.08,0.05-0.11c0.03-0.03,0.07-0.05,0.11-0.05   h0.83c0.01,0,0.04,0.01,0.07,0.03c0.03,0.02,0.05,0.03,0.06,0.05l3.54,5.36v-5.28c0-0.04,0.02-0.08,0.05-0.11   c0.03-0.03,0.07-0.05,0.11-0.05h0.85c0.04,0,0.08,0.02,0.11,0.05c0.03,0.03,0.05,0.07,0.05,0.11v7.42c0,0.04-0.02,0.08-0.05,0.11   c-0.03,0.03-0.07,0.05-0.11,0.05h-0.83c-0.02,0-0.04-0.01-0.07-0.03c-0.03-0.02-0.05-0.03-0.06-0.05l-3.54-5.38V134.48z    M51.18,126.94c0.03-0.03,0.07-0.05,0.11-0.05h4.62c0.04,0,0.08,0.02,0.11,0.05c0.03,0.03,0.05,0.07,0.05,0.11v0.73   c0,0.04-0.02,0.08-0.05,0.12c-0.03,0.03-0.07,0.05-0.11,0.05h-3.61v2.26h3.06c0.04,0,0.08,0.02,0.11,0.05   c0.03,0.03,0.05,0.07,0.05,0.11v0.72c0,0.04-0.02,0.08-0.05,0.11c-0.03,0.03-0.07,0.05-0.11,0.05h-3.06v2.33h3.61   c0.04,0,0.08,0.02,0.11,0.05c0.03,0.03,0.05,0.07,0.05,0.11v0.73c0,0.04-0.02,0.08-0.05,0.11c-0.03,0.03-0.07,0.05-0.11,0.05H51.3   c-0.04,0-0.08-0.02-0.11-0.05c-0.03-0.03-0.05-0.07-0.05-0.11v-7.42C51.14,127.01,51.15,126.97,51.18,126.94 M62.01,134.59   c-0.03,0.03-0.07,0.05-0.11,0.05h-0.85c-0.04,0-0.08-0.02-0.11-0.05c-0.03-0.03-0.05-0.07-0.05-0.11v-6.53h-1.97   c-0.04,0-0.08-0.02-0.11-0.05c-0.03-0.03-0.05-0.07-0.05-0.12v-0.73c0-0.04,0.02-0.08,0.05-0.11c0.03-0.03,0.07-0.05,0.11-0.05   h5.11c0.04,0,0.08,0.02,0.11,0.05c0.03,0.03,0.05,0.07,0.05,0.11v0.73c0,0.04-0.02,0.08-0.05,0.12c-0.03,0.03-0.07,0.05-0.11,0.05   h-1.97v6.53C62.06,134.52,62.04,134.56,62.01,134.59 M72.8,131.38v3.1c0,0.04-0.02,0.08-0.05,0.11c-0.03,0.03-0.07,0.05-0.12,0.05   h-0.85c-0.04,0-0.08-0.02-0.11-0.05c-0.03-0.03-0.05-0.07-0.05-0.11v-7.42c0-0.04,0.02-0.08,0.05-0.11   c0.03-0.03,0.07-0.05,0.11-0.05h2.84c0.37,0,0.7,0.05,1,0.17c0.29,0.11,0.54,0.27,0.76,0.47c0.21,0.2,0.37,0.44,0.48,0.72   c0.11,0.28,0.17,0.58,0.17,0.91c0,0.52-0.14,0.95-0.42,1.29s-0.65,0.59-1.13,0.76l1.67,3.19c0.03,0.06,0.04,0.12,0.01,0.17   c-0.03,0.05-0.08,0.07-0.16,0.07h-1c-0.01,0-0.04-0.01-0.08-0.03c-0.04-0.02-0.06-0.04-0.07-0.06l-1.59-3.18L72.8,131.38   L72.8,131.38z M72.8,130.37h1.74c0.39,0,0.71-0.1,0.95-0.32c0.24-0.21,0.36-0.51,0.36-0.89c0-0.38-0.12-0.68-0.36-0.9   c-0.24-0.22-0.56-0.32-0.95-0.32H72.8V130.37z M79.74,133.83c0.05-0.1,0.12-0.21,0.22-0.3c0.1-0.1,0.2-0.18,0.31-0.23   c0.11-0.06,0.19-0.06,0.24-0.01c0.12,0.1,0.26,0.19,0.4,0.26c0.15,0.07,0.34,0.1,0.59,0.1c0.44,0,0.78-0.13,1.03-0.39   c0.25-0.26,0.38-0.64,0.38-1.15v-5.05c0-0.04,0.02-0.08,0.05-0.11c0.03-0.03,0.07-0.05,0.12-0.05h0.85c0.04,0,0.08,0.02,0.12,0.05   c0.03,0.03,0.05,0.07,0.05,0.11v5.14c0,0.4-0.07,0.76-0.2,1.07c-0.13,0.32-0.32,0.58-0.56,0.79c-0.23,0.21-0.51,0.37-0.82,0.48   c-0.31,0.11-0.65,0.16-1,0.16c-0.37,0-0.69-0.05-0.97-0.14c-0.28-0.09-0.54-0.26-0.78-0.48C79.69,134.02,79.69,133.93,79.74,133.83    M87.79,126.94c0.03-0.03,0.07-0.05,0.12-0.05h4.62c0.04,0,0.08,0.02,0.11,0.05c0.03,0.03,0.05,0.07,0.05,0.11v0.73   c0,0.04-0.02,0.08-0.05,0.12c-0.03,0.03-0.07,0.05-0.11,0.05h-3.61v2.26h3.06c0.04,0,0.08,0.02,0.11,0.05   c0.03,0.03,0.05,0.07,0.05,0.11v0.72c0,0.04-0.02,0.08-0.05,0.11c-0.03,0.03-0.07,0.05-0.11,0.05h-3.06v2.33h3.61   c0.04,0,0.08,0.02,0.11,0.05c0.03,0.03,0.05,0.07,0.05,0.11v0.73c0,0.04-0.02,0.08-0.05,0.11c-0.03,0.03-0.07,0.05-0.11,0.05H87.9   c-0.04,0-0.08-0.02-0.12-0.05c-0.03-0.03-0.05-0.07-0.05-0.11v-7.42C87.74,127.01,87.76,126.97,87.79,126.94 M97.75,126.12   c-0.03-0.01-0.05-0.03-0.07-0.04l-1.13-1.43c-0.06-0.06-0.07-0.12-0.04-0.18c0.03-0.05,0.08-0.08,0.16-0.08h0.51   c0.02,0,0.04,0.01,0.06,0.02s0.05,0.03,0.05,0.03l0.9,1l0.9-1c0.01-0.01,0.03-0.02,0.06-0.03s0.05-0.02,0.06-0.02h0.51   c0.08,0,0.13,0.03,0.16,0.08c0.03,0.06,0.01,0.12-0.04,0.18l-1.13,1.43c-0.02,0.01-0.04,0.03-0.07,0.04   c-0.03,0.02-0.05,0.02-0.06,0.02h-0.78C97.8,126.14,97.78,126.14,97.75,126.12 M95.47,133.56c0.06-0.11,0.13-0.21,0.23-0.31   c0.1-0.1,0.2-0.17,0.31-0.23c0.11-0.05,0.19-0.06,0.24-0.01c0.27,0.24,0.55,0.41,0.86,0.5c0.31,0.09,0.64,0.14,1.01,0.14   c0.51,0,0.9-0.1,1.18-0.31c0.28-0.21,0.42-0.5,0.42-0.88c0-0.29-0.06-0.51-0.18-0.66c-0.12-0.15-0.28-0.27-0.47-0.34   c-0.19-0.08-0.41-0.13-0.66-0.16s-0.51-0.07-0.77-0.11s-0.52-0.11-0.77-0.2c-0.25-0.09-0.48-0.22-0.68-0.41   c-0.38-0.35-0.57-0.85-0.57-1.48c0-0.34,0.06-0.65,0.18-0.93c0.12-0.27,0.29-0.51,0.51-0.72c0.22-0.2,0.49-0.36,0.82-0.47   c0.32-0.11,0.68-0.16,1.08-0.16c0.48,0,0.9,0.06,1.26,0.18c0.36,0.12,0.7,0.31,1.02,0.58c0.06,0.05,0.06,0.13,0.02,0.23   c-0.05,0.1-0.12,0.2-0.21,0.29c-0.09,0.09-0.19,0.17-0.29,0.22c-0.1,0.05-0.19,0.06-0.25,0.02c-0.23-0.19-0.48-0.32-0.73-0.39   c-0.26-0.07-0.54-0.11-0.84-0.11c-0.46,0-0.81,0.11-1.05,0.34c-0.24,0.23-0.36,0.52-0.36,0.86c0,0.26,0.06,0.46,0.18,0.6   c0.12,0.14,0.28,0.25,0.48,0.33c0.2,0.08,0.43,0.13,0.68,0.18c0.25,0.04,0.5,0.08,0.76,0.13c0.26,0.04,0.51,0.11,0.76,0.19   c0.25,0.08,0.46,0.2,0.64,0.37c0.21,0.19,0.37,0.42,0.47,0.69c0.1,0.27,0.16,0.57,0.16,0.9c0,0.36-0.07,0.68-0.21,0.96   s-0.33,0.52-0.58,0.72c-0.25,0.19-0.54,0.34-0.88,0.44c-0.34,0.1-0.71,0.15-1.12,0.15c-0.55,0-1.04-0.06-1.45-0.19   c-0.42-0.13-0.81-0.36-1.17-0.7C95.42,133.74,95.41,133.66,95.47,133.56 M104.25,126.94c0.03-0.03,0.07-0.05,0.11-0.05h4.62   c0.04,0,0.08,0.02,0.11,0.05c0.03,0.03,0.05,0.07,0.05,0.11v0.73c0,0.04-0.02,0.08-0.05,0.12c-0.03,0.03-0.07,0.05-0.11,0.05h-3.61   v2.26h3.06c0.04,0,0.08,0.02,0.11,0.05c0.03,0.03,0.05,0.07,0.05,0.11v0.72c0,0.04-0.01,0.08-0.05,0.11   c-0.03,0.03-0.07,0.05-0.11,0.05h-3.06v2.33h3.61c0.04,0,0.08,0.02,0.11,0.05c0.03,0.03,0.05,0.07,0.05,0.11v0.73   c0,0.04-0.02,0.08-0.05,0.11c-0.03,0.03-0.07,0.05-0.11,0.05h-4.62c-0.04,0-0.08-0.02-0.11-0.05c-0.03-0.03-0.05-0.07-0.05-0.11   v-7.42C104.2,127.01,104.22,126.97,104.25,126.94 M113.68,134.48c0,0.04-0.02,0.08-0.05,0.11c-0.03,0.03-0.07,0.05-0.11,0.05h-0.85   c-0.04,0-0.08-0.02-0.12-0.05c-0.03-0.03-0.05-0.07-0.05-0.11v-7.42c0-0.04,0.02-0.08,0.05-0.11c0.03-0.03,0.07-0.05,0.12-0.05   h0.83c0.01,0,0.04,0.01,0.07,0.03c0.03,0.02,0.05,0.03,0.06,0.05l3.54,5.36v-5.28c0-0.04,0.02-0.08,0.05-0.11   c0.03-0.03,0.07-0.05,0.12-0.05h0.85c0.04,0,0.08,0.02,0.12,0.05c0.03,0.03,0.05,0.07,0.05,0.11v7.42c0,0.04-0.02,0.08-0.05,0.11   c-0.03,0.03-0.07,0.05-0.12,0.05h-0.83c-0.01,0-0.04-0.01-0.07-0.03c-0.03-0.02-0.05-0.03-0.06-0.05l-3.53-5.38   C113.68,129.19,113.68,134.48,113.68,134.48z M121.35,133.83c0.05-0.1,0.13-0.21,0.22-0.3c0.1-0.1,0.2-0.18,0.31-0.23   c0.11-0.06,0.19-0.06,0.24-0.01c0.13,0.1,0.26,0.19,0.4,0.26c0.15,0.07,0.34,0.1,0.59,0.1c0.44,0,0.78-0.13,1.03-0.39   c0.25-0.26,0.37-0.64,0.37-1.15v-5.05c0-0.04,0.02-0.08,0.05-0.11c0.03-0.03,0.07-0.05,0.11-0.05h0.85c0.04,0,0.08,0.02,0.11,0.05   c0.03,0.03,0.05,0.07,0.05,0.11v5.14c0,0.4-0.07,0.76-0.2,1.07c-0.13,0.32-0.32,0.58-0.55,0.79c-0.23,0.21-0.51,0.37-0.82,0.48   c-0.31,0.11-0.65,0.16-1,0.16c-0.37,0-0.69-0.05-0.97-0.14c-0.28-0.09-0.54-0.26-0.78-0.48   C121.3,134.02,121.3,133.93,121.35,133.83 M130.2,133.08l-0.5,1.45c-0.01,0.02-0.03,0.04-0.06,0.07c-0.03,0.03-0.06,0.04-0.09,0.04   h-0.9c-0.06,0-0.11-0.02-0.14-0.06c-0.03-0.04-0.03-0.09-0.01-0.15l2.72-7.42c0.01-0.02,0.04-0.04,0.07-0.07   c0.03-0.03,0.06-0.04,0.08-0.04h0.73c0.02,0,0.05,0.01,0.08,0.04c0.03,0.03,0.06,0.05,0.07,0.07l2.72,7.42   c0.02,0.06,0.02,0.11-0.01,0.15c-0.03,0.04-0.08,0.06-0.14,0.06h-0.9c-0.03,0-0.06-0.01-0.09-0.04c-0.03-0.03-0.05-0.05-0.06-0.07   l-0.5-1.45C133.26,133.08,130.2,133.08,130.2,133.08z M132.94,132.08l-1.18-3.44l-1.21,3.44H132.94z"/>
</g>
</svg>