<svg xmlns="http://www.w3.org/2000/svg" xmlns:xlink="http://www.w3.org/1999/xlink" version="1.1" id="Layer_1" x="0px" y="0px" viewBox="0 0 270 140" style="enable-background:new 0 0 270 140;" xml:space="preserve">
<g>
    <g>
        <path d="M55.93,109.75V93.13h6.44c4.73,0,7.48,3.62,7.48,8.35c0,4.7-2.75,8.27-7.48,8.27H55.93z M62.38,107.65    c3.45,0,5.23-2.68,5.23-6.18s-1.79-6.25-5.23-6.25h-4.2v12.42H62.38z"/>
        <path d="M83.56,104.95h-9.14c0.27,1.88,1.74,3.06,3.64,3.06c1.35,0,2.6-0.63,3.23-1.74c0.58,0.24,1.28,0.48,1.88,0.72    c-0.97,1.98-3.02,2.99-5.19,2.99c-3.21,0-5.77-2.34-5.77-5.91s2.56-5.84,5.77-5.84s5.6,2.27,5.6,5.84    C83.58,104.35,83.58,104.71,83.56,104.95z M81.41,103.24c-0.27-1.88-1.62-3.02-3.43-3.02c-1.86,0-3.3,1.13-3.57,3.02H81.41z"/>
        <path d="M85.92,101.11c0.17-1.64,1.91-2.87,3.91-2.87c1.91,0,3.71,0.89,3.91,3.18h-2.1c-0.12-0.84-0.89-1.28-1.76-1.28    c-0.82,0-1.52,0.41-1.69,1.01c-0.1,0.36-0.1,0.63,0.02,0.89c0.22,0.46,0.75,0.7,1.33,0.87l1.66,0.41c2.34,0.58,2.92,2,2.92,3.28    c0,2.1-2.03,3.38-4.37,3.38c-2.03,0-4.13-1.3-4.2-3.62h2c0.07,0.48,0.39,1.01,0.92,1.28c0.48,0.29,1.06,0.43,1.79,0.39    c1.01-0.07,1.69-0.65,1.71-1.47c0.02-0.82-0.67-1.23-1.5-1.42l-1.54-0.36C86.89,104.23,85.73,103.19,85.92,101.11z"/>
        <path d="M98.06,92.91c0.84,0,1.52,0.6,1.52,1.42s-0.67,1.42-1.52,1.42c-0.82,0-1.52-0.6-1.52-1.42S97.24,92.91,98.06,92.91z     M99.15,98.49h-2.17v11.27h2.17V98.49z"/>
        <path d="M107.76,113.3c2.44,0,4-1.38,4-5.11c0-0.1-0.02-0.17-0.02-0.26c-0.68,1.33-2.39,2.07-3.96,2.07    c-3.09,0-5.72-2.27-5.72-5.84c0-3.59,2.63-5.91,5.72-5.91c1.57,0,3.21,0.7,3.96,2v-1.76h2.17v9.55c0,5.31-2.44,7.33-6.15,7.33    c-2.08,0-4-1.06-5.09-3.04c0.29-0.12,1.54-0.82,1.83-0.96C105.18,112.62,106.5,113.3,107.76,113.3z M107.97,100.39    c-2.03,0-3.67,1.54-3.67,3.74c0,2.29,1.64,3.71,3.67,3.71c1.81,0,3.74-1.33,3.74-3.71C111.71,101.72,109.98,100.39,107.97,100.39z    "/>
        <path d="M119.75,109.75h-2.2V98.49h2.2v1.69c0.68-1.35,2.29-1.93,3.52-1.93c2.8,0,4.34,1.83,4.34,4.99v6.51c-0.36,0-1.86,0-2.2,0    v-6.37c0-1.88-0.94-2.99-2.49-2.99c-1.59,0-3.18,0.89-3.18,3.28V109.75z"/>
        <path d="M141.73,104.95h-9.14c0.26,1.88,1.74,3.06,3.64,3.06c1.35,0,2.61-0.63,3.23-1.74c0.58,0.24,1.28,0.48,1.88,0.72    c-0.96,1.98-3.02,2.99-5.19,2.99c-3.21,0-5.77-2.34-5.77-5.91s2.56-5.84,5.77-5.84c3.21,0,5.6,2.27,5.6,5.84    C141.75,104.35,141.75,104.71,141.73,104.95z M139.58,103.24c-0.27-1.88-1.62-3.02-3.43-3.02c-1.86,0-3.31,1.13-3.57,3.02H139.58z    "/>
        <path d="M146.75,109.75h-2.2V98.49h2.2v2.53c0.58-1.98,1.67-2.77,3.14-2.77c0.8,0,1.64,0.22,1.95,0.43l-0.34,2.05    c-0.6-0.29-1.21-0.39-1.67-0.39c-2.17,0-3.09,2.32-3.09,5.31V109.75z"/>
        <path d="M153.45,98.34c0.87-1.23,1.54-2.99,1.52-5.09h2c-0.22,2.73-1.28,4.75-2.24,5.55L153.45,98.34z"/>
        <path d="M158.95,101.11c0.17-1.64,1.91-2.87,3.91-2.87c1.91,0,3.71,0.89,3.91,3.18h-2.1c-0.12-0.84-0.89-1.28-1.76-1.28    c-0.82,0-1.52,0.41-1.69,1.01c-0.1,0.36-0.1,0.63,0.02,0.89c0.22,0.46,0.75,0.7,1.33,0.87l1.66,0.41c2.34,0.58,2.92,2,2.92,3.28    c0,2.1-2.03,3.38-4.37,3.38c-2.03,0-4.12-1.3-4.2-3.62h2c0.07,0.48,0.39,1.01,0.92,1.28c0.48,0.29,1.06,0.43,1.79,0.39    c1.01-0.07,1.69-0.65,1.71-1.47c0.02-0.82-0.68-1.23-1.5-1.42l-1.54-0.36C159.92,104.23,158.76,103.19,158.95,101.11z"/>
        <path d="M178.47,109.75h-2.2V98.49h2.2v2.53c0.58-1.98,1.67-2.77,3.14-2.77c0.8,0,1.64,0.22,1.95,0.43l-0.34,2.05    c-0.6-0.29-1.21-0.39-1.67-0.39c-2.17,0-3.09,2.32-3.09,5.31V109.75z"/>
        <path d="M184.77,104.08c0-3.57,2.68-5.84,5.89-5.84c3.21,0,5.91,2.27,5.91,5.84s-2.7,5.91-5.91,5.91    C187.45,109.99,184.77,107.65,184.77,104.08z M194.37,104.08c0-2.27-1.69-3.69-3.71-3.69s-3.71,1.42-3.71,3.69    c0,2.29,1.69,3.79,3.71,3.79S194.37,106.37,194.37,104.08z"/>
        <path d="M208.41,108.01c-0.75,1.28-2.39,1.98-3.96,1.98c-3.09,0-5.72-2.32-5.72-5.89c0-3.59,2.63-5.86,5.72-5.86    c1.57,0,3.21,0.65,3.96,1.93v-1.69h2.17v11.27h-2.17V108.01z M204.65,100.39c-2.03,0-3.67,1.45-3.67,3.69    c0,2.22,1.64,3.76,3.67,3.76c2,0,3.74-1.38,3.74-3.76C208.39,101.67,206.46,100.39,204.65,100.39z"/>
        <path d="M223.15,108.01c-0.75,1.28-2.39,1.98-3.96,1.98c-3.09,0-5.69-2.32-5.69-5.89c0-3.59,2.58-5.86,5.67-5.86    c1.66,0,3.23,0.65,3.98,1.93v-7.82h2.2v17.39h-2.2V108.01z M219.39,100.39c-2.03,0-3.64,1.45-3.64,3.69    c0,2.22,1.62,3.76,3.64,3.76c1.98,0,3.74-1.38,3.74-3.76C223.13,101.67,221.2,100.39,219.39,100.39z"/>
    </g>
    <g>
        <polygon style="fill-rule:evenodd;clip-rule:evenodd;fill:#D9D9D9;" points="44.84,93.34 44.84,114 5,114 5,98.21 5,102.95     5,93.34   "/>
        <path style="fill-rule:evenodd;clip-rule:evenodd;fill:#A8A8A8;" d="M14.55,84H5v18.95h9.55c5.27,0,9.55-4.24,9.55-9.47    S19.82,84,14.55,84z"/>
    </g>
</g>
</svg>