<svg xmlns="http://www.w3.org/2000/svg" xmlns:xlink="http://www.w3.org/1999/xlink" version="1.1" id="Layer_1" x="0px" y="0px" viewBox="0 0 100 100" style="enable-background:new 0 0 100 100;" xml:space="preserve">
<g>
    <polygon style="fill-rule:evenodd;clip-rule:evenodd;fill:#4640AB;" points="14.74,16.37 41.91,12 46.33,38.84 19.16,43.21  "/>
    <polygon style="fill-rule:evenodd;clip-rule:evenodd;fill:#FFC31F;" points="20.78,35.73 48.23,33.6 50.38,60.71 22.94,62.84  "/>
    <path style="fill-rule:evenodd;clip-rule:evenodd;fill:#FF8E00;" d="M34.31,40.11c0,0,12.17,4.55,13.21,6.8s1.01-5.57,1.01-5.57   L34.31,40.11z"/>
    <polygon style="fill-rule:evenodd;clip-rule:evenodd;fill:#BE54AC;" points="39.67,13.44 66.67,18.72 61.32,45.4 34.31,40.11  "/>
    <polygon style="fill-rule:evenodd;clip-rule:evenodd;fill:#FF4B46;" points="30.62,65.14 54.01,50.8 68.53,73.9 45.15,88.24  "/>
    <polygon style="fill-rule:evenodd;clip-rule:evenodd;fill:#47B800;" points="48.49,36.04 75,43.23 67.74,69.41 41.23,62.22  "/>
    <polygon style="fill-rule:evenodd;clip-rule:evenodd;fill:#009FE5;" points="83.16,43.93 55.76,41.74 57.98,14.68 85.38,16.87  "/>
    <path style="fill-rule:evenodd;clip-rule:evenodd;fill:#009414;" d="M55.76,41.74c0.38,0.09,5.74,1.18,10.35,2.39   c4.82,1.27,7.8,3.03,7.8,3.03L75,43.23L55.76,41.74z"/>
    <path style="fill-rule:evenodd;clip-rule:evenodd;fill:#AF2439;" d="M41.23,62.22c0,0,5.73,3.55,11.76,5.17   c5.95,1.6,12.39,1.38,12.39,1.38L41.23,62.22z"/>
</g>
</svg>